<svg xmlns="http://www.w3.org/2000/svg" xmlns:xlink="http://www.w3.org/1999/xlink" width="300" zoomAndPan="magnify" viewBox="0 0 224.87999 48" height="64" preserveAspectRatio="xMidYMid meet" version="1.0"><defs><g/></defs><g fill="#ffffff" fill-opacity="1"><g transform="translate(79.04012, 21.270939)"><g><path d="M 5.546875 -9.671875 C 7.140625 -9.671875 8.375 -9.273438 9.25 -8.484375 L 8.015625 -7.234375 C 7.691406 -7.546875 7.304688 -7.773438 6.859375 -7.921875 C 6.421875 -8.078125 5.984375 -8.15625 5.546875 -8.15625 C 4.597656 -8.15625 3.820312 -7.828125 3.21875 -7.171875 C 2.613281 -6.523438 2.3125 -5.726562 2.3125 -4.78125 C 2.3125 -3.738281 2.613281 -2.894531 3.21875 -2.25 C 3.820312 -1.601562 4.601562 -1.28125 5.5625 -1.28125 C 6.425781 -1.28125 7.15625 -1.441406 7.75 -1.765625 L 7.75 -4 L 5.828125 -4 L 5.828125 -5.515625 L 9.4375 -5.515625 L 9.4375 -0.6875 C 8.269531 -0.0703125 6.972656 0.234375 5.546875 0.234375 C 4.085938 0.234375 2.890625 -0.21875 1.953125 -1.125 C 1.015625 -2.03125 0.546875 -3.210938 0.546875 -4.671875 C 0.546875 -6.171875 1.003906 -7.378906 1.921875 -8.296875 C 2.835938 -9.210938 4.046875 -9.671875 5.546875 -9.671875 Z M 5.546875 -9.671875 "/></g></g></g><g fill="#ffffff" fill-opacity="1"><g transform="translate(89.400249, 21.270939)"><g><path d="M 4.0625 -6.5625 C 5.039062 -6.5625 5.863281 -6.25 6.53125 -5.625 C 7.207031 -5 7.546875 -4.191406 7.546875 -3.203125 C 7.546875 -2.203125 7.207031 -1.390625 6.53125 -0.765625 C 5.863281 -0.148438 5.039062 0.15625 4.0625 0.15625 C 3.082031 0.15625 2.257812 -0.148438 1.59375 -0.765625 C 0.925781 -1.390625 0.59375 -2.203125 0.59375 -3.203125 C 0.59375 -4.191406 0.925781 -5 1.59375 -5.625 C 2.257812 -6.25 3.082031 -6.5625 4.0625 -6.5625 Z M 2.1875 -3.203125 C 2.1875 -2.628906 2.363281 -2.164062 2.71875 -1.8125 C 3.082031 -1.457031 3.53125 -1.28125 4.0625 -1.28125 C 4.601562 -1.28125 5.050781 -1.457031 5.40625 -1.8125 C 5.757812 -2.175781 5.9375 -2.640625 5.9375 -3.203125 C 5.9375 -3.765625 5.753906 -4.222656 5.390625 -4.578125 C 5.035156 -4.941406 4.585938 -5.125 4.046875 -5.125 C 3.523438 -5.125 3.082031 -4.941406 2.71875 -4.578125 C 2.363281 -4.210938 2.1875 -3.753906 2.1875 -3.203125 Z M 2.1875 -3.203125 "/></g></g></g><g fill="#ffffff" fill-opacity="1"><g transform="translate(97.523238, 21.270939)"><g/></g></g><g fill="#ffffff" fill-opacity="1"><g transform="translate(101.464885, 21.270939)"><g><path d="M 3.078125 -8.25 L 3.078125 -6.390625 L 4.84375 -6.390625 L 4.84375 -5.03125 L 3.078125 -5.03125 L 3.078125 -2.203125 C 3.078125 -1.535156 3.375 -1.203125 3.96875 -1.203125 C 4.375 -1.203125 4.664062 -1.269531 4.84375 -1.40625 L 4.84375 -0.046875 C 4.539062 0.0859375 4.117188 0.15625 3.578125 0.15625 C 2.835938 0.15625 2.300781 -0.00390625 1.96875 -0.328125 C 1.644531 -0.648438 1.484375 -1.222656 1.484375 -2.046875 L 1.484375 -5.03125 L 0.15625 -5.03125 L 0.15625 -6.390625 L 1.484375 -6.390625 L 1.484375 -8.25 Z M 3.078125 -8.25 "/></g></g></g><g fill="#ffffff" fill-opacity="1"><g transform="translate(106.64495, 21.270939)"><g><path d="M 4.0625 -6.5625 C 5.039062 -6.5625 5.863281 -6.25 6.53125 -5.625 C 7.207031 -5 7.546875 -4.191406 7.546875 -3.203125 C 7.546875 -2.203125 7.207031 -1.390625 6.53125 -0.765625 C 5.863281 -0.148438 5.039062 0.15625 4.0625 0.15625 C 3.082031 0.15625 2.257812 -0.148438 1.59375 -0.765625 C 0.925781 -1.390625 0.59375 -2.203125 0.59375 -3.203125 C 0.59375 -4.191406 0.925781 -5 1.59375 -5.625 C 2.257812 -6.25 3.082031 -6.5625 4.0625 -6.5625 Z M 2.1875 -3.203125 C 2.1875 -2.628906 2.363281 -2.164062 2.71875 -1.8125 C 3.082031 -1.457031 3.53125 -1.28125 4.0625 -1.28125 C 4.601562 -1.28125 5.050781 -1.457031 5.40625 -1.8125 C 5.757812 -2.175781 5.9375 -2.640625 5.9375 -3.203125 C 5.9375 -3.765625 5.753906 -4.222656 5.390625 -4.578125 C 5.035156 -4.941406 4.585938 -5.125 4.046875 -5.125 C 3.523438 -5.125 3.082031 -4.941406 2.71875 -4.578125 C 2.363281 -4.210938 2.1875 -3.753906 2.1875 -3.203125 Z M 2.1875 -3.203125 "/></g></g></g><g fill="#ffffff" fill-opacity="1"><g transform="translate(114.767938, 21.270939)"><g/></g></g><g fill="#ffffff" fill-opacity="1"><g transform="translate(118.709586, 21.270939)"><g><path d="M 7.5625 -9.4375 L 7.5625 -7.921875 L 4.671875 -7.921875 L 4.671875 0 L 2.984375 0 L 2.984375 -7.921875 L 0.09375 -7.921875 L 0.09375 -9.4375 Z M 7.5625 -9.4375 "/></g></g></g><g fill="#ffffff" fill-opacity="1"><g transform="translate(126.353178, 21.270939)"><g><path d="M 5.5625 -9.4375 L 9.625 0 L 7.703125 0 L 6.828125 -2.15625 L 2.734375 -2.15625 L 1.875 0 L 0 0 L 4.109375 -9.4375 Z M 3.3125 -3.59375 L 6.234375 -3.59375 L 4.78125 -7.4375 Z M 3.3125 -3.59375 "/></g></g></g><g fill="#ffffff" fill-opacity="1"><g transform="translate(135.967594, 21.270939)"><g><path d="M 2.734375 -9.4375 L 2.734375 -5.671875 L 7.140625 -5.671875 L 7.140625 -9.4375 L 8.828125 -9.4375 L 8.828125 0 L 7.140625 0 L 7.140625 -4.15625 L 2.734375 -4.15625 L 2.734375 0 L 1.046875 0 L 1.046875 -9.4375 Z M 2.734375 -9.4375 "/></g></g></g><g fill="#ffffff" fill-opacity="1"><g transform="translate(70.713527, 37.778786)"><g><path d="M 2.859375 -9.53125 L 6.09375 -2.0625 L 6.125 -2.0625 L 9.375 -9.53125 L 11.015625 -9.53125 L 11.015625 0 L 9.890625 0 L 9.890625 -7.984375 L 9.859375 -7.984375 L 6.4375 0 L 5.765625 0 L 2.34375 -7.984375 L 2.3125 -7.984375 L 2.3125 0 L 1.1875 0 L 1.1875 -9.53125 Z M 2.859375 -9.53125 "/></g></g></g><g fill="#ffffff" fill-opacity="1"><g transform="translate(82.913304, 37.778786)"><g><path d="M 3.421875 -6.453125 C 4.335938 -6.453125 5.003906 -6.238281 5.421875 -5.8125 C 5.835938 -5.382812 6.046875 -4.734375 6.046875 -3.859375 L 6.046875 -1.03125 C 6.046875 -0.757812 6.078125 -0.414062 6.140625 0 L 5.140625 0 C 5.097656 -0.0820312 5.078125 -0.394531 5.078125 -0.9375 L 5.046875 -0.9375 C 4.566406 -0.21875 3.875 0.144531 2.96875 0.15625 C 2.28125 0.15625 1.71875 -0.015625 1.28125 -0.359375 C 0.84375 -0.703125 0.625 -1.148438 0.625 -1.703125 C 0.625 -2.472656 0.9375 -3.035156 1.5625 -3.390625 C 2.195312 -3.742188 3.179688 -3.921875 4.515625 -3.921875 L 5 -3.921875 L 5 -4.09375 C 5 -5.007812 4.476562 -5.472656 3.4375 -5.484375 C 2.6875 -5.484375 2.066406 -5.253906 1.578125 -4.796875 L 0.921875 -5.484375 C 1.566406 -6.117188 2.398438 -6.441406 3.421875 -6.453125 Z M 1.765625 -1.8125 C 1.765625 -1.101562 2.222656 -0.738281 3.140625 -0.71875 C 3.691406 -0.71875 4.140625 -0.894531 4.484375 -1.25 C 4.828125 -1.601562 5 -2.113281 5 -2.78125 L 5 -3.03125 L 3.84375 -3.03125 C 3.226562 -3.03125 2.726562 -2.929688 2.34375 -2.734375 C 1.96875 -2.535156 1.773438 -2.226562 1.765625 -1.8125 Z M 1.765625 -1.8125 "/></g></g></g><g fill="#ffffff" fill-opacity="1"><g transform="translate(89.894215, 37.778786)"><g><path d="M 1.609375 -9.53125 C 1.816406 -9.53125 1.992188 -9.453125 2.140625 -9.296875 C 2.296875 -9.148438 2.375 -8.972656 2.375 -8.765625 C 2.375 -8.535156 2.300781 -8.347656 2.15625 -8.203125 C 2.019531 -8.054688 1.835938 -7.984375 1.609375 -7.984375 C 1.390625 -7.984375 1.207031 -8.054688 1.0625 -8.203125 C 0.914062 -8.347656 0.84375 -8.535156 0.84375 -8.765625 C 0.84375 -8.972656 0.921875 -9.148438 1.078125 -9.296875 C 1.234375 -9.453125 1.410156 -9.53125 1.609375 -9.53125 Z M 2.140625 -6.296875 L 2.140625 0 L 1.09375 0 L 1.09375 -6.296875 Z M 2.140625 -6.296875 "/></g></g></g><g fill="#ffffff" fill-opacity="1"><g transform="translate(93.122385, 37.778786)"><g><path d="M 4.09375 -6.453125 C 4.882812 -6.453125 5.476562 -6.222656 5.875 -5.765625 C 6.28125 -5.304688 6.484375 -4.695312 6.484375 -3.9375 L 6.484375 0 L 5.4375 0 L 5.4375 -3.828125 C 5.4375 -4.304688 5.320312 -4.695312 5.09375 -5 C 4.875 -5.3125 4.507812 -5.472656 4 -5.484375 C 3.351562 -5.484375 2.863281 -5.269531 2.53125 -4.84375 C 2.207031 -4.414062 2.046875 -3.828125 2.046875 -3.078125 L 2.046875 0 L 1 0 L 1 -4.890625 C 1 -4.941406 0.976562 -5.410156 0.9375 -6.296875 L 1.9375 -6.296875 C 1.957031 -5.671875 1.96875 -5.328125 1.96875 -5.265625 L 1.984375 -5.265625 C 2.160156 -5.617188 2.4375 -5.90625 2.8125 -6.125 C 3.195312 -6.34375 3.625 -6.453125 4.09375 -6.453125 Z M 4.09375 -6.453125 "/></g></g></g><g fill="#ffffff" fill-opacity="1"><g transform="translate(100.600966, 37.778786)"><g/></g></g><g fill="#ffffff" fill-opacity="1"><g transform="translate(104.340263, 37.778786)"><g><path d="M 1.328125 -9.53125 L 3.5 -1.609375 L 3.53125 -1.609375 L 5.859375 -9.53125 L 7.125 -9.53125 L 9.453125 -1.609375 L 9.484375 -1.609375 L 11.6875 -9.53125 L 12.875 -9.53125 L 10.078125 0 L 8.859375 0 L 6.5 -8.078125 L 6.46875 -8.078125 L 4.109375 0 L 2.859375 0 L 0.078125 -9.53125 Z M 1.328125 -9.53125 "/></g></g></g><g fill="#ffffff" fill-opacity="1"><g transform="translate(117.293287, 37.778786)"><g><path d="M 3.859375 -6.453125 C 4.796875 -6.453125 5.523438 -6.15625 6.046875 -5.5625 C 6.566406 -4.976562 6.832031 -4.148438 6.84375 -3.078125 L 6.84375 -2.828125 L 1.765625 -2.828125 C 1.816406 -2.242188 2.035156 -1.765625 2.421875 -1.390625 C 2.804688 -1.015625 3.273438 -0.820312 3.828125 -0.8125 C 4.679688 -0.8125 5.347656 -1.128906 5.828125 -1.765625 L 6.625 -1.140625 C 6.289062 -0.710938 5.898438 -0.390625 5.453125 -0.171875 C 5.003906 0.046875 4.460938 0.15625 3.828125 0.15625 C 2.867188 0.15625 2.097656 -0.148438 1.515625 -0.765625 C 0.929688 -1.390625 0.632812 -2.179688 0.625 -3.140625 C 0.625 -4.097656 0.921875 -4.882812 1.515625 -5.5 C 2.117188 -6.125 2.898438 -6.441406 3.859375 -6.453125 Z M 5.71875 -3.71875 C 5.6875 -4.257812 5.503906 -4.6875 5.171875 -5 C 4.847656 -5.320312 4.394531 -5.484375 3.8125 -5.484375 C 3.269531 -5.484375 2.8125 -5.332031 2.4375 -5.03125 C 2.070312 -4.726562 1.847656 -4.289062 1.765625 -3.71875 Z M 5.71875 -3.71875 "/></g></g></g><g fill="#ffffff" fill-opacity="1"><g transform="translate(124.771869, 37.778786)"><g><path d="M 1.984375 -10.171875 L 1.984375 -5.375 L 2.015625 -5.375 C 2.628906 -6.082031 3.382812 -6.441406 4.28125 -6.453125 C 5.269531 -6.453125 6.066406 -6.140625 6.671875 -5.515625 C 7.273438 -4.898438 7.582031 -4.109375 7.59375 -3.140625 C 7.59375 -2.210938 7.289062 -1.429688 6.6875 -0.796875 C 6.082031 -0.171875 5.332031 0.144531 4.4375 0.15625 C 3.894531 0.15625 3.40625 0.0390625 2.96875 -0.1875 C 2.539062 -0.414062 2.222656 -0.722656 2.015625 -1.109375 L 1.984375 -1.109375 L 1.984375 0 L 0.9375 0 L 0.9375 -10.171875 Z M 1.984375 -3.140625 C 1.984375 -2.453125 2.195312 -1.890625 2.625 -1.453125 C 3.050781 -1.023438 3.582031 -0.8125 4.21875 -0.8125 C 4.875 -0.8125 5.40625 -1.023438 5.8125 -1.453125 C 6.226562 -1.890625 6.441406 -2.453125 6.453125 -3.140625 C 6.453125 -3.828125 6.242188 -4.390625 5.828125 -4.828125 C 5.410156 -5.265625 4.867188 -5.484375 4.203125 -5.484375 C 3.554688 -5.484375 3.023438 -5.265625 2.609375 -4.828125 C 2.203125 -4.398438 1.992188 -3.835938 1.984375 -3.140625 Z M 1.984375 -3.140625 "/></g></g></g><g fill="#ffffff" fill-opacity="1"><g transform="translate(132.990241, 37.778786)"><g><path d="M 2.921875 -6.453125 C 3.921875 -6.441406 4.632812 -6.0625 5.0625 -5.3125 L 4.1875 -4.734375 C 3.875 -5.234375 3.429688 -5.484375 2.859375 -5.484375 C 2.503906 -5.484375 2.207031 -5.398438 1.96875 -5.234375 C 1.726562 -5.078125 1.609375 -4.867188 1.609375 -4.609375 C 1.609375 -4.191406 2.132812 -3.890625 3.1875 -3.703125 C 3.9375 -3.566406 4.46875 -3.34375 4.78125 -3.03125 C 5.101562 -2.726562 5.265625 -2.320312 5.265625 -1.8125 C 5.265625 -1.195312 5.035156 -0.710938 4.578125 -0.359375 C 4.117188 -0.015625 3.507812 0.15625 2.75 0.15625 C 2.15625 0.15625 1.664062 0.0625 1.28125 -0.125 C 0.90625 -0.3125 0.578125 -0.609375 0.296875 -1.015625 L 1.125 -1.65625 C 1.382812 -1.34375 1.640625 -1.125 1.890625 -1 C 2.148438 -0.875 2.4375 -0.8125 2.75 -0.8125 C 3.144531 -0.8125 3.472656 -0.894531 3.734375 -1.0625 C 3.992188 -1.238281 4.125 -1.476562 4.125 -1.78125 C 4.125 -2.082031 3.988281 -2.304688 3.71875 -2.453125 C 3.445312 -2.609375 2.992188 -2.75 2.359375 -2.875 C 1.722656 -3.007812 1.265625 -3.210938 0.984375 -3.484375 C 0.703125 -3.753906 0.5625 -4.125 0.5625 -4.59375 C 0.5625 -5.125 0.78125 -5.5625 1.21875 -5.90625 C 1.65625 -6.257812 2.222656 -6.441406 2.921875 -6.453125 Z M 2.921875 -6.453125 "/></g></g></g><g fill="#ffffff" fill-opacity="1"><g transform="translate(138.720234, 37.778786)"><g><path d="M 1.609375 -9.53125 C 1.816406 -9.53125 1.992188 -9.453125 2.140625 -9.296875 C 2.296875 -9.148438 2.375 -8.972656 2.375 -8.765625 C 2.375 -8.535156 2.300781 -8.347656 2.15625 -8.203125 C 2.019531 -8.054688 1.835938 -7.984375 1.609375 -7.984375 C 1.390625 -7.984375 1.207031 -8.054688 1.0625 -8.203125 C 0.914062 -8.347656 0.84375 -8.535156 0.84375 -8.765625 C 0.84375 -8.972656 0.921875 -9.148438 1.078125 -9.296875 C 1.234375 -9.453125 1.410156 -9.53125 1.609375 -9.53125 Z M 2.140625 -6.296875 L 2.140625 0 L 1.09375 0 L 1.09375 -6.296875 Z M 2.140625 -6.296875 "/></g></g></g><g fill="#ffffff" fill-opacity="1"><g transform="translate(141.948404, 37.778786)"><g><path d="M 2.578125 -8.078125 L 2.578125 -6.296875 L 4.4375 -6.296875 L 4.4375 -5.40625 L 2.578125 -5.40625 L 2.578125 -2.046875 C 2.578125 -1.546875 2.65625 -1.210938 2.8125 -1.046875 C 2.976562 -0.890625 3.21875 -0.8125 3.53125 -0.8125 C 3.875 -0.8125 4.179688 -0.878906 4.453125 -1.015625 L 4.5 -0.0625 C 4.132812 0.0820312 3.722656 0.15625 3.265625 0.15625 C 2.617188 0.15625 2.164062 0 1.90625 -0.3125 C 1.65625 -0.632812 1.53125 -1.160156 1.53125 -1.890625 L 1.53125 -5.40625 L 0.15625 -5.40625 L 0.15625 -6.296875 L 1.53125 -6.296875 L 1.53125 -8.078125 Z M 2.578125 -8.078125 "/></g></g></g><g fill="#ffffff" fill-opacity="1"><g transform="translate(146.683055, 37.778786)"><g><path d="M 3.859375 -6.453125 C 4.796875 -6.453125 5.523438 -6.15625 6.046875 -5.5625 C 6.566406 -4.976562 6.832031 -4.148438 6.84375 -3.078125 L 6.84375 -2.828125 L 1.765625 -2.828125 C 1.816406 -2.242188 2.035156 -1.765625 2.421875 -1.390625 C 2.804688 -1.015625 3.273438 -0.820312 3.828125 -0.8125 C 4.679688 -0.8125 5.347656 -1.128906 5.828125 -1.765625 L 6.625 -1.140625 C 6.289062 -0.710938 5.898438 -0.390625 5.453125 -0.171875 C 5.003906 0.046875 4.460938 0.15625 3.828125 0.15625 C 2.867188 0.15625 2.097656 -0.148438 1.515625 -0.765625 C 0.929688 -1.390625 0.632812 -2.179688 0.625 -3.140625 C 0.625 -4.097656 0.921875 -4.882812 1.515625 -5.5 C 2.117188 -6.125 2.898438 -6.441406 3.859375 -6.453125 Z M 5.71875 -3.71875 C 5.6875 -4.257812 5.503906 -4.6875 5.171875 -5 C 4.847656 -5.320312 4.394531 -5.484375 3.8125 -5.484375 C 3.269531 -5.484375 2.8125 -5.332031 2.4375 -5.03125 C 2.070312 -4.726562 1.847656 -4.289062 1.765625 -3.71875 Z M 5.71875 -3.71875 "/></g></g></g></svg>