<svg xmlns="http://www.w3.org/2000/svg" xmlns:xlink="http://www.w3.org/1999/xlink" width="300" zoomAndPan="magnify" viewBox="0 0 224.87999 48" height="64" preserveAspectRatio="xMidYMid meet" version="1.0"><defs><g/></defs><g fill="#ffffff" fill-opacity="1"><g transform="translate(88.45289, 24.043497)"><g><path d="M 1.875 0 C 1.289062 0 1 -0.289062 1 -0.875 L 1 -8.234375 C 1 -8.828125 1.289062 -9.125 1.875 -9.125 L 4.984375 -9.125 C 5.941406 -9.125 6.679688 -8.910156 7.203125 -8.484375 C 7.734375 -8.066406 8 -7.488281 8 -6.75 C 8 -6.257812 7.875 -5.835938 7.625 -5.484375 C 7.375 -5.128906 7.023438 -4.867188 6.578125 -4.703125 C 7.097656 -4.554688 7.503906 -4.300781 7.796875 -3.9375 C 8.085938 -3.570312 8.234375 -3.109375 8.234375 -2.546875 C 8.234375 -1.734375 7.957031 -1.101562 7.40625 -0.65625 C 6.851562 -0.21875 6.09375 0 5.125 0 Z M 2.59375 -5.25 L 4.703125 -5.25 C 5.828125 -5.25 6.390625 -5.6875 6.390625 -6.5625 C 6.390625 -7.425781 5.828125 -7.859375 4.703125 -7.859375 L 2.59375 -7.859375 Z M 2.59375 -1.25 L 4.921875 -1.25 C 6.054688 -1.25 6.625 -1.707031 6.625 -2.625 C 6.625 -3.539062 6.054688 -4 4.921875 -4 L 2.59375 -4 Z M 2.59375 -1.25 "/></g></g></g><g fill="#ffffff" fill-opacity="1"><g transform="translate(97.34666, 24.043497)"><g><path d="M 2.921875 0.125 C 2.460938 0.125 2.054688 0.0351562 1.703125 -0.140625 C 1.347656 -0.316406 1.066406 -0.554688 0.859375 -0.859375 C 0.660156 -1.160156 0.5625 -1.5 0.5625 -1.875 C 0.5625 -2.34375 0.679688 -2.710938 0.921875 -2.984375 C 1.160156 -3.253906 1.550781 -3.445312 2.09375 -3.5625 C 2.632812 -3.6875 3.363281 -3.75 4.28125 -3.75 L 4.734375 -3.75 L 4.734375 -4.03125 C 4.734375 -4.457031 4.640625 -4.765625 4.453125 -4.953125 C 4.265625 -5.140625 3.945312 -5.234375 3.5 -5.234375 C 3.25 -5.234375 2.976562 -5.203125 2.6875 -5.140625 C 2.394531 -5.085938 2.085938 -4.988281 1.765625 -4.84375 C 1.566406 -4.75 1.394531 -4.738281 1.25 -4.8125 C 1.113281 -4.882812 1.019531 -5 0.96875 -5.15625 C 0.925781 -5.3125 0.9375 -5.472656 1 -5.640625 C 1.0625 -5.804688 1.191406 -5.925781 1.390625 -6 C 1.796875 -6.164062 2.179688 -6.28125 2.546875 -6.34375 C 2.910156 -6.414062 3.242188 -6.453125 3.546875 -6.453125 C 4.460938 -6.453125 5.144531 -6.238281 5.59375 -5.8125 C 6.050781 -5.382812 6.28125 -4.722656 6.28125 -3.828125 L 6.28125 -0.71875 C 6.28125 -0.164062 6.03125 0.109375 5.53125 0.109375 C 5.019531 0.109375 4.765625 -0.164062 4.765625 -0.71875 L 4.765625 -1.015625 C 4.617188 -0.660156 4.382812 -0.378906 4.0625 -0.171875 C 3.738281 0.0234375 3.359375 0.125 2.921875 0.125 Z M 3.265625 -0.984375 C 3.679688 -0.984375 4.03125 -1.128906 4.3125 -1.421875 C 4.59375 -1.710938 4.734375 -2.082031 4.734375 -2.53125 L 4.734375 -2.828125 L 4.296875 -2.828125 C 3.484375 -2.828125 2.921875 -2.757812 2.609375 -2.625 C 2.296875 -2.5 2.140625 -2.273438 2.140625 -1.953125 C 2.140625 -1.671875 2.238281 -1.4375 2.4375 -1.25 C 2.632812 -1.070312 2.910156 -0.984375 3.265625 -0.984375 Z M 3.265625 -0.984375 "/></g></g></g><g fill="#ffffff" fill-opacity="1"><g transform="translate(104.417723, 24.043497)"><g><path d="M 3.765625 0.125 C 3.097656 0.125 2.519531 -0.0078125 2.03125 -0.28125 C 1.539062 -0.550781 1.160156 -0.9375 0.890625 -1.4375 C 0.617188 -1.9375 0.484375 -2.523438 0.484375 -3.203125 C 0.484375 -3.867188 0.617188 -4.445312 0.890625 -4.9375 C 1.160156 -5.425781 1.539062 -5.800781 2.03125 -6.0625 C 2.519531 -6.320312 3.097656 -6.453125 3.765625 -6.453125 C 4.046875 -6.453125 4.351562 -6.410156 4.6875 -6.328125 C 5.019531 -6.253906 5.332031 -6.128906 5.625 -5.953125 C 5.800781 -5.847656 5.90625 -5.710938 5.9375 -5.546875 C 5.96875 -5.378906 5.941406 -5.226562 5.859375 -5.09375 C 5.785156 -4.957031 5.675781 -4.859375 5.53125 -4.796875 C 5.394531 -4.734375 5.238281 -4.753906 5.0625 -4.859375 C 4.664062 -5.085938 4.28125 -5.203125 3.90625 -5.203125 C 3.34375 -5.203125 2.90625 -5.023438 2.59375 -4.671875 C 2.289062 -4.328125 2.140625 -3.832031 2.140625 -3.1875 C 2.140625 -2.539062 2.289062 -2.035156 2.59375 -1.671875 C 2.90625 -1.304688 3.34375 -1.125 3.90625 -1.125 C 4.28125 -1.125 4.664062 -1.234375 5.0625 -1.453125 C 5.238281 -1.554688 5.394531 -1.578125 5.53125 -1.515625 C 5.675781 -1.453125 5.773438 -1.347656 5.828125 -1.203125 C 5.890625 -1.066406 5.90625 -0.914062 5.875 -0.75 C 5.84375 -0.59375 5.742188 -0.460938 5.578125 -0.359375 C 5.296875 -0.191406 4.992188 -0.0703125 4.671875 0 C 4.347656 0.0820312 4.046875 0.125 3.765625 0.125 Z M 3.765625 0.125 "/></g></g></g><g fill="#ffffff" fill-opacity="1"><g transform="translate(110.519267, 24.043497)"><g><path d="M 1.640625 0.109375 C 1.109375 0.109375 0.84375 -0.164062 0.84375 -0.71875 L 0.84375 -8.40625 C 0.84375 -8.945312 1.109375 -9.21875 1.640625 -9.21875 C 2.179688 -9.21875 2.453125 -8.945312 2.453125 -8.40625 L 2.453125 -3.640625 L 2.484375 -3.640625 L 4.625 -5.890625 C 4.789062 -6.054688 4.9375 -6.1875 5.0625 -6.28125 C 5.195312 -6.382812 5.378906 -6.4375 5.609375 -6.4375 C 5.828125 -6.4375 5.992188 -6.375 6.109375 -6.25 C 6.222656 -6.132812 6.28125 -5.992188 6.28125 -5.828125 C 6.28125 -5.671875 6.207031 -5.507812 6.0625 -5.34375 L 4.109375 -3.296875 L 6.28125 -0.96875 C 6.425781 -0.800781 6.492188 -0.632812 6.484375 -0.46875 C 6.472656 -0.300781 6.398438 -0.160156 6.265625 -0.046875 C 6.140625 0.0546875 5.976562 0.109375 5.78125 0.109375 C 5.539062 0.109375 5.347656 0.0625 5.203125 -0.03125 C 5.066406 -0.132812 4.910156 -0.28125 4.734375 -0.46875 L 2.484375 -2.828125 L 2.453125 -2.828125 L 2.453125 -0.71875 C 2.453125 -0.164062 2.179688 0.109375 1.640625 0.109375 Z M 1.640625 0.109375 "/></g></g></g><g fill="#ffffff" fill-opacity="1"><g transform="translate(117.448139, 24.043497)"><g/></g></g><g fill="#ffffff" fill-opacity="1"><g transform="translate(120.951351, 24.043497)"><g><path d="M 4.03125 0.109375 C 3.476562 0.109375 3.203125 -0.175781 3.203125 -0.75 L 3.203125 -7.734375 L 0.671875 -7.734375 C 0.203125 -7.734375 -0.03125 -7.96875 -0.03125 -8.4375 C -0.03125 -8.894531 0.203125 -9.125 0.671875 -9.125 L 7.375 -9.125 C 7.851562 -9.125 8.09375 -8.894531 8.09375 -8.4375 C 8.09375 -7.96875 7.851562 -7.734375 7.375 -7.734375 L 4.859375 -7.734375 L 4.859375 -0.75 C 4.859375 -0.175781 4.582031 0.109375 4.03125 0.109375 Z M 4.03125 0.109375 "/></g></g></g><g fill="#ffffff" fill-opacity="1"><g transform="translate(128.979013, 24.043497)"><g><path d="M 3.71875 0.125 C 3.070312 0.125 2.503906 -0.00390625 2.015625 -0.265625 C 1.535156 -0.535156 1.160156 -0.914062 0.890625 -1.40625 C 0.617188 -1.90625 0.484375 -2.492188 0.484375 -3.171875 C 0.484375 -3.835938 0.617188 -4.414062 0.890625 -4.90625 C 1.160156 -5.40625 1.535156 -5.785156 2.015625 -6.046875 C 2.503906 -6.316406 3.070312 -6.453125 3.71875 -6.453125 C 4.375 -6.453125 4.941406 -6.316406 5.421875 -6.046875 C 5.910156 -5.785156 6.285156 -5.40625 6.546875 -4.90625 C 6.816406 -4.414062 6.953125 -3.835938 6.953125 -3.171875 C 6.953125 -2.492188 6.816406 -1.90625 6.546875 -1.40625 C 6.285156 -0.914062 5.910156 -0.535156 5.421875 -0.265625 C 4.941406 -0.00390625 4.375 0.125 3.71875 0.125 Z M 3.71875 -1.09375 C 4.207031 -1.09375 4.597656 -1.265625 4.890625 -1.609375 C 5.179688 -1.960938 5.328125 -2.484375 5.328125 -3.171875 C 5.328125 -3.859375 5.179688 -4.375 4.890625 -4.71875 C 4.597656 -5.0625 4.207031 -5.234375 3.71875 -5.234375 C 3.238281 -5.234375 2.851562 -5.0625 2.5625 -4.71875 C 2.269531 -4.375 2.125 -3.859375 2.125 -3.171875 C 2.125 -2.484375 2.269531 -1.960938 2.5625 -1.609375 C 2.851562 -1.265625 3.238281 -1.09375 3.71875 -1.09375 Z M 3.71875 -1.09375 "/></g></g></g><g fill="#ffffff" fill-opacity="1"><g transform="translate(71.726558, 35.9312)"><g><path d="M 2.859375 0.078125 C 2.460938 0.078125 2.265625 -0.125 2.265625 -0.53125 L 2.265625 -5.5 L 0.484375 -5.5 C 0.140625 -5.5 -0.03125 -5.660156 -0.03125 -5.984375 C -0.03125 -6.316406 0.140625 -6.484375 0.484375 -6.484375 L 5.234375 -6.484375 C 5.566406 -6.484375 5.734375 -6.316406 5.734375 -5.984375 C 5.734375 -5.660156 5.566406 -5.5 5.234375 -5.5 L 3.4375 -5.5 L 3.4375 -0.53125 C 3.4375 -0.125 3.242188 0.078125 2.859375 0.078125 Z M 2.859375 0.078125 "/></g></g></g><g fill="#ffffff" fill-opacity="1"><g transform="translate(77.433928, 35.9312)"><g><path d="M 0.765625 0.078125 C 0.554688 0.078125 0.40625 0.00390625 0.3125 -0.140625 C 0.21875 -0.296875 0.222656 -0.476562 0.328125 -0.6875 L 2.75 -6.046875 C 2.820312 -6.234375 2.914062 -6.363281 3.03125 -6.4375 C 3.144531 -6.507812 3.273438 -6.546875 3.421875 -6.546875 C 3.566406 -6.546875 3.695312 -6.507812 3.8125 -6.4375 C 3.925781 -6.363281 4.019531 -6.234375 4.09375 -6.046875 L 6.53125 -0.6875 C 6.625 -0.46875 6.628906 -0.285156 6.546875 -0.140625 C 6.460938 0.00390625 6.316406 0.078125 6.109375 0.078125 C 5.941406 0.078125 5.804688 0.0351562 5.703125 -0.046875 C 5.609375 -0.128906 5.523438 -0.257812 5.453125 -0.4375 L 5 -1.5 L 1.84375 -1.5 L 1.390625 -0.4375 C 1.304688 -0.257812 1.222656 -0.128906 1.140625 -0.046875 C 1.054688 0.0351562 0.929688 0.078125 0.765625 0.078125 Z M 3.40625 -5.203125 L 2.234375 -2.4375 L 4.59375 -2.4375 L 3.421875 -5.203125 Z M 3.40625 -5.203125 "/></g></g></g><g fill="#ffffff" fill-opacity="1"><g transform="translate(84.271745, 35.9312)"><g><path d="M 1.296875 0.078125 C 0.898438 0.078125 0.703125 -0.125 0.703125 -0.53125 L 0.703125 -5.9375 C 0.703125 -6.34375 0.898438 -6.546875 1.296875 -6.546875 C 1.691406 -6.546875 1.890625 -6.34375 1.890625 -5.9375 L 1.890625 -3.78125 L 5.21875 -3.78125 L 5.21875 -5.9375 C 5.21875 -6.34375 5.414062 -6.546875 5.8125 -6.546875 C 6.195312 -6.546875 6.390625 -6.34375 6.390625 -5.9375 L 6.390625 -0.53125 C 6.390625 -0.125 6.195312 0.078125 5.8125 0.078125 C 5.414062 0.078125 5.21875 -0.125 5.21875 -0.53125 L 5.21875 -2.796875 L 1.890625 -2.796875 L 1.890625 -0.53125 C 1.890625 -0.125 1.691406 0.078125 1.296875 0.078125 Z M 1.296875 0.078125 "/></g></g></g><g fill="#ffffff" fill-opacity="1"><g transform="translate(91.376084, 35.9312)"><g/></g></g><g fill="#ffffff" fill-opacity="1"><g transform="translate(93.866738, 35.9312)"><g><path d="M 1.265625 0.078125 C 0.898438 0.078125 0.71875 -0.109375 0.71875 -0.484375 L 0.71875 -6 C 0.71875 -6.363281 0.90625 -6.546875 1.28125 -6.546875 C 1.425781 -6.546875 1.539062 -6.515625 1.625 -6.453125 C 1.71875 -6.398438 1.804688 -6.304688 1.890625 -6.171875 L 4 -2.234375 L 6.125 -6.171875 C 6.195312 -6.304688 6.273438 -6.398438 6.359375 -6.453125 C 6.453125 -6.515625 6.570312 -6.546875 6.71875 -6.546875 C 7.082031 -6.546875 7.265625 -6.363281 7.265625 -6 L 7.265625 -0.484375 C 7.265625 -0.109375 7.082031 0.078125 6.71875 0.078125 C 6.363281 0.078125 6.1875 -0.109375 6.1875 -0.484375 L 6.1875 -4.359375 L 4.46875 -1.21875 C 4.40625 -1.113281 4.335938 -1.035156 4.265625 -0.984375 C 4.203125 -0.929688 4.113281 -0.90625 4 -0.90625 C 3.882812 -0.90625 3.785156 -0.929688 3.703125 -0.984375 C 3.628906 -1.035156 3.566406 -1.113281 3.515625 -1.21875 L 1.796875 -4.34375 L 1.796875 -0.484375 C 1.796875 -0.109375 1.617188 0.078125 1.265625 0.078125 Z M 1.265625 0.078125 "/></g></g></g><g fill="#ffffff" fill-opacity="1"><g transform="translate(101.84419, 35.9312)"><g><path d="M 2.078125 0.09375 C 1.753906 0.09375 1.460938 0.03125 1.203125 -0.09375 C 0.953125 -0.21875 0.753906 -0.382812 0.609375 -0.59375 C 0.460938 -0.8125 0.390625 -1.054688 0.390625 -1.328125 C 0.390625 -1.660156 0.472656 -1.921875 0.640625 -2.109375 C 0.816406 -2.304688 1.097656 -2.445312 1.484375 -2.53125 C 1.867188 -2.625 2.390625 -2.671875 3.046875 -2.671875 L 3.359375 -2.671875 L 3.359375 -2.859375 C 3.359375 -3.160156 3.289062 -3.378906 3.15625 -3.515625 C 3.019531 -3.648438 2.796875 -3.71875 2.484375 -3.71875 C 2.304688 -3.71875 2.113281 -3.695312 1.90625 -3.65625 C 1.695312 -3.613281 1.484375 -3.539062 1.265625 -3.4375 C 1.109375 -3.363281 0.984375 -3.351562 0.890625 -3.40625 C 0.796875 -3.457031 0.726562 -3.539062 0.6875 -3.65625 C 0.65625 -3.769531 0.660156 -3.882812 0.703125 -4 C 0.753906 -4.125 0.851562 -4.210938 1 -4.265625 C 1.28125 -4.378906 1.550781 -4.457031 1.8125 -4.5 C 2.070312 -4.550781 2.304688 -4.578125 2.515625 -4.578125 C 3.171875 -4.578125 3.65625 -4.425781 3.96875 -4.125 C 4.289062 -3.820312 4.453125 -3.351562 4.453125 -2.71875 L 4.453125 -0.515625 C 4.453125 -0.117188 4.273438 0.078125 3.921875 0.078125 C 3.554688 0.078125 3.375 -0.117188 3.375 -0.515625 L 3.375 -0.71875 C 3.269531 -0.46875 3.101562 -0.269531 2.875 -0.125 C 2.65625 0.0195312 2.390625 0.09375 2.078125 0.09375 Z M 2.3125 -0.703125 C 2.613281 -0.703125 2.863281 -0.804688 3.0625 -1.015625 C 3.257812 -1.222656 3.359375 -1.484375 3.359375 -1.796875 L 3.359375 -2 L 3.046875 -2 C 2.472656 -2 2.070312 -1.953125 1.84375 -1.859375 C 1.625 -1.773438 1.515625 -1.617188 1.515625 -1.390625 C 1.515625 -1.179688 1.582031 -1.015625 1.71875 -0.890625 C 1.863281 -0.765625 2.0625 -0.703125 2.3125 -0.703125 Z M 2.3125 -0.703125 "/></g></g></g><g fill="#ffffff" fill-opacity="1"><g transform="translate(106.871454, 35.9312)"><g><path d="M 1.171875 -5.40625 C 0.953125 -5.40625 0.78125 -5.457031 0.65625 -5.5625 C 0.539062 -5.675781 0.484375 -5.828125 0.484375 -6.015625 C 0.484375 -6.210938 0.539062 -6.363281 0.65625 -6.46875 C 0.78125 -6.570312 0.953125 -6.625 1.171875 -6.625 C 1.617188 -6.625 1.84375 -6.421875 1.84375 -6.015625 C 1.84375 -5.609375 1.617188 -5.40625 1.171875 -5.40625 Z M 1.171875 0.0625 C 0.984375 0.0625 0.835938 0.0078125 0.734375 -0.09375 C 0.640625 -0.207031 0.59375 -0.363281 0.59375 -0.5625 L 0.59375 -3.9375 C 0.59375 -4.351562 0.785156 -4.5625 1.171875 -4.5625 C 1.554688 -4.5625 1.75 -4.351562 1.75 -3.9375 L 1.75 -0.5625 C 1.75 -0.363281 1.695312 -0.207031 1.59375 -0.09375 C 1.5 0.0078125 1.359375 0.0625 1.171875 0.0625 Z M 1.171875 0.0625 "/></g></g></g><g fill="#ffffff" fill-opacity="1"><g transform="translate(109.215057, 35.9312)"><g><path d="M 1.171875 0.078125 C 0.785156 0.078125 0.59375 -0.117188 0.59375 -0.515625 L 0.59375 -3.984375 C 0.59375 -4.367188 0.78125 -4.5625 1.15625 -4.5625 C 1.53125 -4.5625 1.71875 -4.367188 1.71875 -3.984375 L 1.71875 -3.796875 C 1.875 -4.054688 2.082031 -4.25 2.34375 -4.375 C 2.601562 -4.507812 2.894531 -4.578125 3.21875 -4.578125 C 4.28125 -4.578125 4.8125 -3.960938 4.8125 -2.734375 L 4.8125 -0.515625 C 4.8125 -0.117188 4.617188 0.078125 4.234375 0.078125 C 3.847656 0.078125 3.65625 -0.117188 3.65625 -0.515625 L 3.65625 -2.6875 C 3.65625 -3.03125 3.585938 -3.28125 3.453125 -3.4375 C 3.328125 -3.601562 3.125 -3.6875 2.84375 -3.6875 C 2.507812 -3.6875 2.242188 -3.578125 2.046875 -3.359375 C 1.847656 -3.148438 1.75 -2.875 1.75 -2.53125 L 1.75 -0.515625 C 1.75 -0.117188 1.554688 0.078125 1.171875 0.078125 Z M 1.171875 0.078125 "/></g></g></g><g fill="#ffffff" fill-opacity="1"><g transform="translate(114.591564, 35.9312)"><g/></g></g><g fill="#ffffff" fill-opacity="1"><g transform="translate(117.082217, 35.9312)"><g><path d="M 2.984375 0.078125 C 2.671875 0.078125 2.457031 -0.0859375 2.34375 -0.421875 L 0.421875 -5.859375 C 0.359375 -6.046875 0.375 -6.207031 0.46875 -6.34375 C 0.5625 -6.476562 0.722656 -6.546875 0.953125 -6.546875 C 1.109375 -6.546875 1.234375 -6.507812 1.328125 -6.4375 C 1.421875 -6.363281 1.492188 -6.242188 1.546875 -6.078125 L 3.015625 -1.703125 L 4.5625 -6.0625 C 4.675781 -6.382812 4.875 -6.546875 5.15625 -6.546875 C 5.300781 -6.546875 5.414062 -6.503906 5.5 -6.421875 C 5.582031 -6.347656 5.65625 -6.222656 5.71875 -6.046875 L 7.234375 -1.640625 L 8.75 -6.078125 C 8.8125 -6.234375 8.882812 -6.347656 8.96875 -6.421875 C 9.0625 -6.503906 9.191406 -6.546875 9.359375 -6.546875 C 9.546875 -6.546875 9.6875 -6.476562 9.78125 -6.34375 C 9.875 -6.207031 9.890625 -6.046875 9.828125 -5.859375 L 7.890625 -0.40625 C 7.828125 -0.25 7.742188 -0.128906 7.640625 -0.046875 C 7.546875 0.0351562 7.414062 0.078125 7.25 0.078125 C 7.082031 0.078125 6.945312 0.0351562 6.84375 -0.046875 C 6.75 -0.128906 6.671875 -0.253906 6.609375 -0.421875 L 5.125 -4.671875 L 3.609375 -0.40625 C 3.546875 -0.25 3.46875 -0.128906 3.375 -0.046875 C 3.28125 0.0351562 3.148438 0.078125 2.984375 0.078125 Z M 2.984375 0.078125 "/></g></g></g><g fill="#ffffff" fill-opacity="1"><g transform="translate(127.311366, 35.9312)"><g><path d="M 2.8125 0.09375 C 2.300781 0.09375 1.863281 0 1.5 -0.1875 C 1.132812 -0.382812 0.847656 -0.65625 0.640625 -1 C 0.441406 -1.351562 0.34375 -1.765625 0.34375 -2.234375 C 0.34375 -2.703125 0.4375 -3.109375 0.625 -3.453125 C 0.820312 -3.804688 1.09375 -4.082031 1.4375 -4.28125 C 1.78125 -4.476562 2.164062 -4.578125 2.59375 -4.578125 C 3.238281 -4.578125 3.742188 -4.375 4.109375 -3.96875 C 4.484375 -3.570312 4.671875 -3.023438 4.671875 -2.328125 C 4.671875 -2.097656 4.519531 -1.984375 4.21875 -1.984375 L 1.453125 -1.984375 C 1.535156 -1.179688 1.992188 -0.78125 2.828125 -0.78125 C 2.984375 -0.78125 3.160156 -0.800781 3.359375 -0.84375 C 3.566406 -0.882812 3.757812 -0.953125 3.9375 -1.046875 C 4.09375 -1.140625 4.222656 -1.164062 4.328125 -1.125 C 4.441406 -1.09375 4.519531 -1.03125 4.5625 -0.9375 C 4.613281 -0.84375 4.617188 -0.734375 4.578125 -0.609375 C 4.546875 -0.492188 4.460938 -0.390625 4.328125 -0.296875 C 4.109375 -0.160156 3.859375 -0.0625 3.578125 0 C 3.304688 0.0625 3.050781 0.09375 2.8125 0.09375 Z M 2.640625 -3.796875 C 2.304688 -3.796875 2.035156 -3.691406 1.828125 -3.484375 C 1.617188 -3.273438 1.492188 -2.992188 1.453125 -2.640625 L 3.71875 -2.640625 C 3.6875 -3.015625 3.582031 -3.300781 3.40625 -3.5 C 3.226562 -3.695312 2.972656 -3.796875 2.640625 -3.796875 Z M 2.640625 -3.796875 "/></g></g></g><g fill="#ffffff" fill-opacity="1"><g transform="translate(132.292679, 35.9312)"><g><path d="M 3.1875 0.09375 C 2.851562 0.09375 2.554688 0.0195312 2.296875 -0.125 C 2.046875 -0.269531 1.859375 -0.460938 1.734375 -0.703125 L 1.734375 -0.515625 C 1.734375 -0.117188 1.546875 0.078125 1.171875 0.078125 C 0.785156 0.078125 0.59375 -0.117188 0.59375 -0.515625 L 0.59375 -5.96875 C 0.59375 -6.351562 0.785156 -6.546875 1.171875 -6.546875 C 1.554688 -6.546875 1.75 -6.351562 1.75 -5.96875 L 1.75 -3.828125 C 1.882812 -4.054688 2.078125 -4.238281 2.328125 -4.375 C 2.578125 -4.507812 2.863281 -4.578125 3.1875 -4.578125 C 3.582031 -4.578125 3.925781 -4.484375 4.21875 -4.296875 C 4.519531 -4.109375 4.75 -3.84375 4.90625 -3.5 C 5.070312 -3.15625 5.15625 -2.738281 5.15625 -2.25 C 5.15625 -1.769531 5.070312 -1.351562 4.90625 -1 C 4.75 -0.65625 4.519531 -0.382812 4.21875 -0.1875 C 3.925781 0 3.582031 0.09375 3.1875 0.09375 Z M 2.859375 -0.78125 C 3.203125 -0.78125 3.476562 -0.90625 3.6875 -1.15625 C 3.894531 -1.40625 4 -1.769531 4 -2.25 C 4 -2.738281 3.894531 -3.101562 3.6875 -3.34375 C 3.476562 -3.59375 3.203125 -3.71875 2.859375 -3.71875 C 2.523438 -3.71875 2.253906 -3.59375 2.046875 -3.34375 C 1.835938 -3.101562 1.734375 -2.738281 1.734375 -2.25 C 1.734375 -1.769531 1.835938 -1.40625 2.046875 -1.15625 C 2.253906 -0.90625 2.523438 -0.78125 2.859375 -0.78125 Z M 2.859375 -0.78125 "/></g></g></g><g fill="#ffffff" fill-opacity="1"><g transform="translate(137.807049, 35.9312)"><g><path d="M 2.234375 0.09375 C 1.972656 0.09375 1.695312 0.0625 1.40625 0 C 1.113281 -0.0507812 0.847656 -0.144531 0.609375 -0.28125 C 0.484375 -0.351562 0.40625 -0.441406 0.375 -0.546875 C 0.34375 -0.648438 0.347656 -0.75 0.390625 -0.84375 C 0.429688 -0.945312 0.5 -1.019531 0.59375 -1.0625 C 0.6875 -1.101562 0.796875 -1.09375 0.921875 -1.03125 C 1.171875 -0.914062 1.398438 -0.832031 1.609375 -0.78125 C 1.828125 -0.738281 2.039062 -0.71875 2.25 -0.71875 C 2.539062 -0.71875 2.757812 -0.765625 2.90625 -0.859375 C 3.050781 -0.960938 3.125 -1.097656 3.125 -1.265625 C 3.125 -1.523438 2.929688 -1.691406 2.546875 -1.765625 L 1.640625 -1.9375 C 0.859375 -2.082031 0.46875 -2.488281 0.46875 -3.15625 C 0.46875 -3.445312 0.546875 -3.695312 0.703125 -3.90625 C 0.867188 -4.125 1.09375 -4.289062 1.375 -4.40625 C 1.664062 -4.519531 2 -4.578125 2.375 -4.578125 C 2.914062 -4.578125 3.398438 -4.457031 3.828125 -4.21875 C 3.941406 -4.164062 4.007812 -4.082031 4.03125 -3.96875 C 4.050781 -3.863281 4.035156 -3.765625 3.984375 -3.671875 C 3.941406 -3.578125 3.867188 -3.507812 3.765625 -3.46875 C 3.671875 -3.425781 3.5625 -3.4375 3.4375 -3.5 C 3.25 -3.59375 3.066406 -3.660156 2.890625 -3.703125 C 2.710938 -3.753906 2.546875 -3.78125 2.390625 -3.78125 C 2.085938 -3.78125 1.863281 -3.726562 1.71875 -3.625 C 1.570312 -3.519531 1.5 -3.378906 1.5 -3.203125 C 1.5 -2.929688 1.675781 -2.765625 2.03125 -2.703125 L 2.953125 -2.53125 C 3.347656 -2.457031 3.644531 -2.320312 3.84375 -2.125 C 4.050781 -1.9375 4.15625 -1.675781 4.15625 -1.34375 C 4.15625 -0.894531 3.976562 -0.539062 3.625 -0.28125 C 3.28125 -0.03125 2.816406 0.09375 2.234375 0.09375 Z M 2.234375 0.09375 "/></g></g></g><g fill="#ffffff" fill-opacity="1"><g transform="translate(142.29207, 35.9312)"><g><path d="M 1.171875 -5.40625 C 0.953125 -5.40625 0.78125 -5.457031 0.65625 -5.5625 C 0.539062 -5.675781 0.484375 -5.828125 0.484375 -6.015625 C 0.484375 -6.210938 0.539062 -6.363281 0.65625 -6.46875 C 0.78125 -6.570312 0.953125 -6.625 1.171875 -6.625 C 1.617188 -6.625 1.84375 -6.421875 1.84375 -6.015625 C 1.84375 -5.609375 1.617188 -5.40625 1.171875 -5.40625 Z M 1.171875 0.0625 C 0.984375 0.0625 0.835938 0.0078125 0.734375 -0.09375 C 0.640625 -0.207031 0.59375 -0.363281 0.59375 -0.5625 L 0.59375 -3.9375 C 0.59375 -4.351562 0.785156 -4.5625 1.171875 -4.5625 C 1.554688 -4.5625 1.75 -4.351562 1.75 -3.9375 L 1.75 -0.5625 C 1.75 -0.363281 1.695312 -0.207031 1.59375 -0.09375 C 1.5 0.0078125 1.359375 0.0625 1.171875 0.0625 Z M 1.171875 0.0625 "/></g></g></g><g fill="#ffffff" fill-opacity="1"><g transform="translate(144.635674, 35.9312)"><g><path d="M 2.65625 0.09375 C 1.46875 0.09375 0.875 -0.492188 0.875 -1.671875 L 0.875 -3.625 L 0.390625 -3.625 C 0.0859375 -3.625 -0.0625 -3.769531 -0.0625 -4.0625 C -0.0625 -4.351562 0.0859375 -4.5 0.390625 -4.5 L 0.875 -4.5 L 0.875 -5.328125 C 0.875 -5.710938 1.066406 -5.90625 1.453125 -5.90625 C 1.828125 -5.90625 2.015625 -5.710938 2.015625 -5.328125 L 2.015625 -4.5 L 3 -4.5 C 3.300781 -4.5 3.453125 -4.351562 3.453125 -4.0625 C 3.453125 -3.769531 3.300781 -3.625 3 -3.625 L 2.015625 -3.625 L 2.015625 -1.734375 C 2.015625 -1.441406 2.078125 -1.222656 2.203125 -1.078125 C 2.335938 -0.929688 2.550781 -0.859375 2.84375 -0.859375 C 2.945312 -0.859375 3.035156 -0.863281 3.109375 -0.875 C 3.191406 -0.894531 3.265625 -0.910156 3.328125 -0.921875 C 3.398438 -0.921875 3.457031 -0.894531 3.5 -0.84375 C 3.550781 -0.789062 3.578125 -0.6875 3.578125 -0.53125 C 3.578125 -0.40625 3.554688 -0.296875 3.515625 -0.203125 C 3.484375 -0.109375 3.414062 -0.046875 3.3125 -0.015625 C 3.226562 0.015625 3.117188 0.0390625 2.984375 0.0625 C 2.859375 0.0820312 2.75 0.09375 2.65625 0.09375 Z M 2.65625 0.09375 "/></g></g></g><g fill="#ffffff" fill-opacity="1"><g transform="translate(148.164868, 35.9312)"><g><path d="M 2.8125 0.09375 C 2.300781 0.09375 1.863281 0 1.5 -0.1875 C 1.132812 -0.382812 0.847656 -0.65625 0.640625 -1 C 0.441406 -1.351562 0.34375 -1.765625 0.34375 -2.234375 C 0.34375 -2.703125 0.4375 -3.109375 0.625 -3.453125 C 0.820312 -3.804688 1.09375 -4.082031 1.4375 -4.28125 C 1.78125 -4.476562 2.164062 -4.578125 2.59375 -4.578125 C 3.238281 -4.578125 3.742188 -4.375 4.109375 -3.96875 C 4.484375 -3.570312 4.671875 -3.023438 4.671875 -2.328125 C 4.671875 -2.097656 4.519531 -1.984375 4.21875 -1.984375 L 1.453125 -1.984375 C 1.535156 -1.179688 1.992188 -0.78125 2.828125 -0.78125 C 2.984375 -0.78125 3.160156 -0.800781 3.359375 -0.84375 C 3.566406 -0.882812 3.757812 -0.953125 3.9375 -1.046875 C 4.09375 -1.140625 4.222656 -1.164062 4.328125 -1.125 C 4.441406 -1.09375 4.519531 -1.03125 4.5625 -0.9375 C 4.613281 -0.84375 4.617188 -0.734375 4.578125 -0.609375 C 4.546875 -0.492188 4.460938 -0.390625 4.328125 -0.296875 C 4.109375 -0.160156 3.859375 -0.0625 3.578125 0 C 3.304688 0.0625 3.050781 0.09375 2.8125 0.09375 Z M 2.640625 -3.796875 C 2.304688 -3.796875 2.035156 -3.691406 1.828125 -3.484375 C 1.617188 -3.273438 1.492188 -2.992188 1.453125 -2.640625 L 3.71875 -2.640625 C 3.6875 -3.015625 3.582031 -3.300781 3.40625 -3.5 C 3.226562 -3.695312 2.972656 -3.796875 2.640625 -3.796875 Z M 2.640625 -3.796875 "/></g></g></g></svg>