<svg xmlns="http://www.w3.org/2000/svg" xmlns:xlink="http://www.w3.org/1999/xlink" width="300" zoomAndPan="magnify" viewBox="0 0 224.87999 48" height="64" preserveAspectRatio="xMidYMid meet" version="1.0"><defs><g/></defs><g fill="#ffffff" fill-opacity="1"><g transform="translate(69.910974, 18.197451)"><g><path d="M 2.734375 -9.4375 L 2.734375 -1.515625 L 6.75 -1.515625 L 6.75 0 L 1.046875 0 L 1.046875 -9.4375 Z M 2.734375 -9.4375 "/></g></g></g><g fill="#ffffff" fill-opacity="1"><g transform="translate(76.82217, 18.197451)"><g><path d="M 4.0625 -6.5625 C 5.039062 -6.5625 5.863281 -6.25 6.53125 -5.625 C 7.207031 -5 7.546875 -4.191406 7.546875 -3.203125 C 7.546875 -2.203125 7.207031 -1.390625 6.53125 -0.765625 C 5.863281 -0.148438 5.039062 0.15625 4.0625 0.15625 C 3.082031 0.15625 2.257812 -0.148438 1.59375 -0.765625 C 0.925781 -1.390625 0.59375 -2.203125 0.59375 -3.203125 C 0.59375 -4.191406 0.925781 -5 1.59375 -5.625 C 2.257812 -6.25 3.082031 -6.5625 4.0625 -6.5625 Z M 2.1875 -3.203125 C 2.1875 -2.628906 2.363281 -2.164062 2.71875 -1.8125 C 3.082031 -1.457031 3.53125 -1.28125 4.0625 -1.28125 C 4.601562 -1.28125 5.050781 -1.457031 5.40625 -1.8125 C 5.757812 -2.175781 5.9375 -2.640625 5.9375 -3.203125 C 5.9375 -3.765625 5.753906 -4.222656 5.390625 -4.578125 C 5.035156 -4.941406 4.585938 -5.125 4.046875 -5.125 C 3.523438 -5.125 3.082031 -4.941406 2.71875 -4.578125 C 2.363281 -4.210938 2.1875 -3.753906 2.1875 -3.203125 Z M 2.1875 -3.203125 "/></g></g></g><g fill="#ffffff" fill-opacity="1"><g transform="translate(84.945158, 18.197451)"><g><path d="M 3.734375 -6.5625 C 4.765625 -6.5625 5.5 -6.1875 5.9375 -5.4375 L 5.96875 -5.4375 L 5.96875 -6.390625 L 7.484375 -6.390625 L 7.484375 -0.515625 C 7.484375 0.640625 7.179688 1.546875 6.578125 2.203125 C 5.984375 2.867188 5.082031 3.203125 3.875 3.203125 C 2.5625 3.203125 1.503906 2.847656 0.703125 2.140625 L 1.671875 0.84375 C 2.335938 1.457031 3.066406 1.765625 3.859375 1.765625 C 4.609375 1.765625 5.132812 1.570312 5.4375 1.1875 C 5.738281 0.8125 5.890625 0.269531 5.890625 -0.4375 L 5.890625 -0.859375 L 5.859375 -0.859375 C 5.367188 -0.234375 4.671875 0.078125 3.765625 0.078125 C 2.847656 0.078125 2.085938 -0.226562 1.484375 -0.84375 C 0.890625 -1.457031 0.59375 -2.242188 0.59375 -3.203125 C 0.59375 -4.179688 0.878906 -4.984375 1.453125 -5.609375 C 2.023438 -6.242188 2.785156 -6.5625 3.734375 -6.5625 Z M 2.1875 -3.21875 C 2.1875 -2.675781 2.367188 -2.226562 2.734375 -1.875 C 3.109375 -1.53125 3.550781 -1.359375 4.0625 -1.359375 C 4.644531 -1.359375 5.109375 -1.535156 5.453125 -1.890625 C 5.796875 -2.242188 5.96875 -2.691406 5.96875 -3.234375 C 5.96875 -3.828125 5.789062 -4.289062 5.4375 -4.625 C 5.09375 -4.957031 4.632812 -5.125 4.0625 -5.125 C 3.507812 -5.125 3.054688 -4.945312 2.703125 -4.59375 C 2.359375 -4.25 2.1875 -3.789062 2.1875 -3.21875 Z M 2.1875 -3.21875 "/></g></g></g><g fill="#ffffff" fill-opacity="1"><g transform="translate(93.334475, 18.197451)"><g><path d="M 1.71875 -9.53125 C 2.007812 -9.53125 2.253906 -9.4375 2.453125 -9.25 C 2.660156 -9.070312 2.765625 -8.84375 2.765625 -8.5625 C 2.765625 -8.28125 2.660156 -8.050781 2.453125 -7.875 C 2.242188 -7.695312 2 -7.609375 1.71875 -7.609375 C 1.4375 -7.609375 1.195312 -7.703125 1 -7.890625 C 0.800781 -8.085938 0.703125 -8.3125 0.703125 -8.5625 C 0.703125 -8.820312 0.800781 -9.046875 1 -9.234375 C 1.195312 -9.429688 1.4375 -9.53125 1.71875 -9.53125 Z M 2.53125 -6.390625 L 2.53125 0 L 0.9375 0 L 0.9375 -6.390625 Z M 2.53125 -6.390625 "/></g></g></g><g fill="#ffffff" fill-opacity="1"><g transform="translate(96.796726, 18.197451)"><g><path d="M 4.40625 -6.5625 C 5.132812 -6.5625 5.707031 -6.34375 6.125 -5.90625 C 6.539062 -5.46875 6.75 -4.863281 6.75 -4.09375 L 6.75 0 L 5.140625 0 L 5.140625 -3.3125 C 5.140625 -4.519531 4.75 -5.125 3.96875 -5.125 C 3.519531 -5.125 3.160156 -4.972656 2.890625 -4.671875 C 2.628906 -4.378906 2.5 -3.992188 2.5 -3.515625 L 2.5 0 L 0.90625 0 L 0.90625 -6.390625 L 2.421875 -6.390625 L 2.421875 -5.375 L 2.453125 -5.375 C 2.816406 -6.164062 3.46875 -6.5625 4.40625 -6.5625 Z M 4.40625 -6.5625 "/></g></g></g><g fill="#ffffff" fill-opacity="1"><g transform="translate(104.440318, 18.197451)"><g/></g></g><g fill="#ffffff" fill-opacity="1"><g transform="translate(108.381966, 18.197451)"><g><path d="M 3.078125 -8.25 L 3.078125 -6.390625 L 4.84375 -6.390625 L 4.84375 -5.03125 L 3.078125 -5.03125 L 3.078125 -2.203125 C 3.078125 -1.535156 3.375 -1.203125 3.96875 -1.203125 C 4.375 -1.203125 4.664062 -1.269531 4.84375 -1.40625 L 4.84375 -0.046875 C 4.539062 0.0859375 4.117188 0.15625 3.578125 0.15625 C 2.835938 0.15625 2.300781 -0.00390625 1.96875 -0.328125 C 1.644531 -0.648438 1.484375 -1.222656 1.484375 -2.046875 L 1.484375 -5.03125 L 0.15625 -5.03125 L 0.15625 -6.390625 L 1.484375 -6.390625 L 1.484375 -8.25 Z M 3.078125 -8.25 "/></g></g></g><g fill="#ffffff" fill-opacity="1"><g transform="translate(113.562031, 18.197451)"><g><path d="M 4.0625 -6.5625 C 5.039062 -6.5625 5.863281 -6.25 6.53125 -5.625 C 7.207031 -5 7.546875 -4.191406 7.546875 -3.203125 C 7.546875 -2.203125 7.207031 -1.390625 6.53125 -0.765625 C 5.863281 -0.148438 5.039062 0.15625 4.0625 0.15625 C 3.082031 0.15625 2.257812 -0.148438 1.59375 -0.765625 C 0.925781 -1.390625 0.59375 -2.203125 0.59375 -3.203125 C 0.59375 -4.191406 0.925781 -5 1.59375 -5.625 C 2.257812 -6.25 3.082031 -6.5625 4.0625 -6.5625 Z M 2.1875 -3.203125 C 2.1875 -2.628906 2.363281 -2.164062 2.71875 -1.8125 C 3.082031 -1.457031 3.53125 -1.28125 4.0625 -1.28125 C 4.601562 -1.28125 5.050781 -1.457031 5.40625 -1.8125 C 5.757812 -2.175781 5.9375 -2.640625 5.9375 -3.203125 C 5.9375 -3.765625 5.753906 -4.222656 5.390625 -4.578125 C 5.035156 -4.941406 4.585938 -5.125 4.046875 -5.125 C 3.523438 -5.125 3.082031 -4.941406 2.71875 -4.578125 C 2.363281 -4.210938 2.1875 -3.753906 2.1875 -3.203125 Z M 2.1875 -3.203125 "/></g></g></g><g fill="#ffffff" fill-opacity="1"><g transform="translate(121.685019, 18.197451)"><g/></g></g><g fill="#ffffff" fill-opacity="1"><g transform="translate(125.626666, 18.197451)"><g><path d="M 1.921875 -9.4375 L 4.234375 -5.671875 L 6.578125 -9.4375 L 8.578125 -9.4375 L 5.03125 -4.03125 L 5.03125 0 L 3.359375 0 L 3.359375 -4.03125 L -0.1875 -9.4375 Z M 1.921875 -9.4375 "/></g></g></g><g fill="#ffffff" fill-opacity="1"><g transform="translate(134.015983, 18.197451)"><g><path d="M 4.0625 -6.5625 C 5.039062 -6.5625 5.863281 -6.25 6.53125 -5.625 C 7.207031 -5 7.546875 -4.191406 7.546875 -3.203125 C 7.546875 -2.203125 7.207031 -1.390625 6.53125 -0.765625 C 5.863281 -0.148438 5.039062 0.15625 4.0625 0.15625 C 3.082031 0.15625 2.257812 -0.148438 1.59375 -0.765625 C 0.925781 -1.390625 0.59375 -2.203125 0.59375 -3.203125 C 0.59375 -4.191406 0.925781 -5 1.59375 -5.625 C 2.257812 -6.25 3.082031 -6.5625 4.0625 -6.5625 Z M 2.1875 -3.203125 C 2.1875 -2.628906 2.363281 -2.164062 2.71875 -1.8125 C 3.082031 -1.457031 3.53125 -1.28125 4.0625 -1.28125 C 4.601562 -1.28125 5.050781 -1.457031 5.40625 -1.8125 C 5.757812 -2.175781 5.9375 -2.640625 5.9375 -3.203125 C 5.9375 -3.765625 5.753906 -4.222656 5.390625 -4.578125 C 5.035156 -4.941406 4.585938 -5.125 4.046875 -5.125 C 3.523438 -5.125 3.082031 -4.941406 2.71875 -4.578125 C 2.363281 -4.210938 2.1875 -3.753906 2.1875 -3.203125 Z M 2.1875 -3.203125 "/></g></g></g><g fill="#ffffff" fill-opacity="1"><g transform="translate(142.138971, 18.197451)"><g><path d="M 2.5 -6.390625 L 2.5 -3.09375 C 2.5 -2.445312 2.597656 -1.984375 2.796875 -1.703125 C 2.992188 -1.421875 3.285156 -1.28125 3.671875 -1.28125 C 4.148438 -1.28125 4.515625 -1.425781 4.765625 -1.71875 C 5.015625 -2.007812 5.140625 -2.40625 5.140625 -2.90625 L 5.140625 -6.390625 L 6.75 -6.390625 L 6.75 0 L 5.21875 0 L 5.21875 -1.03125 L 5.203125 -1.03125 C 4.828125 -0.238281 4.171875 0.15625 3.234375 0.15625 C 2.515625 0.15625 1.945312 -0.0546875 1.53125 -0.484375 C 1.113281 -0.921875 0.90625 -1.53125 0.90625 -2.3125 L 0.90625 -6.390625 Z M 2.5 -6.390625 "/></g></g></g><g fill="#ffffff" fill-opacity="1"><g transform="translate(149.782563, 18.197451)"><g><path d="M 4.421875 -6.5625 C 4.554688 -6.5625 4.75 -6.53125 5 -6.46875 L 5 -4.921875 C 4.71875 -4.992188 4.457031 -5.03125 4.21875 -5.03125 C 3.695312 -5.03125 3.28125 -4.875 2.96875 -4.5625 C 2.65625 -4.257812 2.5 -3.847656 2.5 -3.328125 L 2.5 0 L 0.90625 0 L 0.90625 -6.390625 L 2.5 -6.390625 L 2.5 -5.390625 L 2.53125 -5.390625 C 2.707031 -5.753906 2.957031 -6.039062 3.28125 -6.25 C 3.613281 -6.457031 3.992188 -6.5625 4.421875 -6.5625 Z M 4.421875 -6.5625 "/></g></g></g><g fill="#ffffff" fill-opacity="1"><g transform="translate(72.05334, 34.705283)"><g><path d="M 7.578125 -9.53125 L 7.578125 -8.46875 L 4.421875 -8.46875 L 4.421875 0 L 3.296875 0 L 3.296875 -8.46875 L 0.140625 -8.46875 L 0.140625 -9.53125 Z M 7.578125 -9.53125 "/></g></g></g><g fill="#ffffff" fill-opacity="1"><g transform="translate(79.774042, 34.705283)"><g><path d="M 5.34375 -9.53125 L 9.390625 0 L 8.078125 0 L 7.109375 -2.34375 L 2.34375 -2.34375 L 1.359375 0 L 0.078125 0 L 4.28125 -9.53125 Z M 4.765625 -8.078125 L 2.78125 -3.390625 L 6.671875 -3.390625 L 4.796875 -8.078125 Z M 4.765625 -8.078125 "/></g></g></g><g fill="#ffffff" fill-opacity="1"><g transform="translate(89.243332, 34.705283)"><g><path d="M 2.3125 -9.53125 L 2.3125 -5.484375 L 7.40625 -5.484375 L 7.40625 -9.53125 L 8.53125 -9.53125 L 8.53125 0 L 7.40625 0 L 7.40625 -4.4375 L 2.3125 -4.4375 L 2.3125 0 L 1.1875 0 L 1.1875 -9.53125 Z M 2.3125 -9.53125 "/></g></g></g><g fill="#ffffff" fill-opacity="1"><g transform="translate(98.954729, 34.705283)"><g/></g></g><g fill="#ffffff" fill-opacity="1"><g transform="translate(102.694026, 34.705283)"><g><path d="M 5.34375 -9.53125 L 9.390625 0 L 8.078125 0 L 7.109375 -2.34375 L 2.34375 -2.34375 L 1.359375 0 L 0.078125 0 L 4.28125 -9.53125 Z M 4.765625 -8.078125 L 2.78125 -3.390625 L 6.671875 -3.390625 L 4.796875 -8.078125 Z M 4.765625 -8.078125 "/></g></g></g><g fill="#ffffff" fill-opacity="1"><g transform="translate(112.163316, 34.705283)"><g><path d="M 3.90625 -6.453125 C 4.894531 -6.453125 5.695312 -6.125 6.3125 -5.46875 L 5.46875 -4.71875 C 5.050781 -5.226562 4.523438 -5.484375 3.890625 -5.484375 C 3.234375 -5.484375 2.710938 -5.269531 2.328125 -4.84375 C 1.953125 -4.414062 1.765625 -3.847656 1.765625 -3.140625 C 1.765625 -2.472656 1.96875 -1.921875 2.375 -1.484375 C 2.78125 -1.046875 3.285156 -0.820312 3.890625 -0.8125 C 4.578125 -0.8125 5.109375 -1.070312 5.484375 -1.59375 L 6.265625 -0.84375 C 5.679688 -0.1875 4.890625 0.144531 3.890625 0.15625 C 2.929688 0.144531 2.148438 -0.15625 1.546875 -0.75 C 0.953125 -1.351562 0.644531 -2.148438 0.625 -3.140625 C 0.632812 -4.148438 0.945312 -4.953125 1.5625 -5.546875 C 2.1875 -6.148438 2.96875 -6.453125 3.90625 -6.453125 Z M 3.90625 -6.453125 "/></g></g></g><g fill="#ffffff" fill-opacity="1"><g transform="translate(118.646556, 34.705283)"><g><path d="M 3.90625 -6.453125 C 4.894531 -6.453125 5.695312 -6.125 6.3125 -5.46875 L 5.46875 -4.71875 C 5.050781 -5.226562 4.523438 -5.484375 3.890625 -5.484375 C 3.234375 -5.484375 2.710938 -5.269531 2.328125 -4.84375 C 1.953125 -4.414062 1.765625 -3.847656 1.765625 -3.140625 C 1.765625 -2.472656 1.96875 -1.921875 2.375 -1.484375 C 2.78125 -1.046875 3.285156 -0.820312 3.890625 -0.8125 C 4.578125 -0.8125 5.109375 -1.070312 5.484375 -1.59375 L 6.265625 -0.84375 C 5.679688 -0.1875 4.890625 0.144531 3.890625 0.15625 C 2.929688 0.144531 2.148438 -0.15625 1.546875 -0.75 C 0.953125 -1.351562 0.644531 -2.148438 0.625 -3.140625 C 0.632812 -4.148438 0.945312 -4.953125 1.5625 -5.546875 C 2.1875 -6.148438 2.96875 -6.453125 3.90625 -6.453125 Z M 3.90625 -6.453125 "/></g></g></g><g fill="#ffffff" fill-opacity="1"><g transform="translate(125.129796, 34.705283)"><g><path d="M 4 -6.453125 C 4.976562 -6.453125 5.773438 -6.148438 6.390625 -5.546875 C 7.003906 -4.941406 7.328125 -4.140625 7.359375 -3.140625 C 7.359375 -2.179688 7.039062 -1.394531 6.40625 -0.78125 C 5.78125 -0.164062 4.976562 0.144531 4 0.15625 C 3.007812 0.15625 2.203125 -0.148438 1.578125 -0.765625 C 0.960938 -1.390625 0.644531 -2.179688 0.625 -3.140625 C 0.625 -4.109375 0.9375 -4.898438 1.5625 -5.515625 C 2.195312 -6.128906 3.007812 -6.441406 4 -6.453125 Z M 1.765625 -3.140625 C 1.765625 -2.453125 1.972656 -1.894531 2.390625 -1.46875 C 2.804688 -1.039062 3.34375 -0.820312 4 -0.8125 C 4.65625 -0.8125 5.1875 -1.023438 5.59375 -1.453125 C 6.007812 -1.890625 6.222656 -2.453125 6.234375 -3.140625 C 6.234375 -3.828125 6.023438 -4.390625 5.609375 -4.828125 C 5.191406 -5.265625 4.648438 -5.484375 3.984375 -5.484375 C 3.335938 -5.484375 2.804688 -5.265625 2.390625 -4.828125 C 1.984375 -4.398438 1.773438 -3.835938 1.765625 -3.140625 Z M 1.765625 -3.140625 "/></g></g></g><g fill="#ffffff" fill-opacity="1"><g transform="translate(133.119504, 34.705283)"><g><path d="M 2.046875 -6.296875 L 2.046875 -2.46875 C 2.046875 -1.988281 2.160156 -1.59375 2.390625 -1.28125 C 2.617188 -0.976562 2.984375 -0.820312 3.484375 -0.8125 C 4.128906 -0.8125 4.613281 -1.023438 4.9375 -1.453125 C 5.269531 -1.878906 5.4375 -2.453125 5.4375 -3.171875 L 5.4375 -6.296875 L 6.484375 -6.296875 L 6.484375 -1.40625 C 6.492188 -1.144531 6.507812 -0.675781 6.53125 0 L 5.546875 0 C 5.535156 -0.425781 5.523438 -0.769531 5.515625 -1.03125 L 5.484375 -1.03125 C 5.328125 -0.6875 5.054688 -0.398438 4.671875 -0.171875 C 4.296875 0.046875 3.863281 0.15625 3.375 0.15625 C 2.601562 0.144531 2.015625 -0.0820312 1.609375 -0.53125 C 1.203125 -0.976562 1 -1.585938 1 -2.359375 L 1 -6.296875 Z M 2.046875 -6.296875 "/></g></g></g><g fill="#ffffff" fill-opacity="1"><g transform="translate(140.598086, 34.705283)"><g><path d="M 4.09375 -6.453125 C 4.882812 -6.453125 5.476562 -6.222656 5.875 -5.765625 C 6.28125 -5.304688 6.484375 -4.695312 6.484375 -3.9375 L 6.484375 0 L 5.4375 0 L 5.4375 -3.828125 C 5.4375 -4.304688 5.320312 -4.695312 5.09375 -5 C 4.875 -5.3125 4.507812 -5.472656 4 -5.484375 C 3.351562 -5.484375 2.863281 -5.269531 2.53125 -4.84375 C 2.207031 -4.414062 2.046875 -3.828125 2.046875 -3.078125 L 2.046875 0 L 1 0 L 1 -4.890625 C 1 -4.941406 0.976562 -5.410156 0.9375 -6.296875 L 1.9375 -6.296875 C 1.957031 -5.671875 1.96875 -5.328125 1.96875 -5.265625 L 1.984375 -5.265625 C 2.160156 -5.617188 2.4375 -5.90625 2.8125 -6.125 C 3.195312 -6.34375 3.625 -6.453125 4.09375 -6.453125 Z M 4.09375 -6.453125 "/></g></g></g><g fill="#ffffff" fill-opacity="1"><g transform="translate(148.076667, 34.705283)"><g><path d="M 2.578125 -8.078125 L 2.578125 -6.296875 L 4.4375 -6.296875 L 4.4375 -5.40625 L 2.578125 -5.40625 L 2.578125 -2.046875 C 2.578125 -1.546875 2.65625 -1.210938 2.8125 -1.046875 C 2.976562 -0.890625 3.21875 -0.8125 3.53125 -0.8125 C 3.875 -0.8125 4.179688 -0.878906 4.453125 -1.015625 L 4.5 -0.0625 C 4.132812 0.0820312 3.722656 0.15625 3.265625 0.15625 C 2.617188 0.15625 2.164062 0 1.90625 -0.3125 C 1.65625 -0.632812 1.53125 -1.160156 1.53125 -1.890625 L 1.53125 -5.40625 L 0.15625 -5.40625 L 0.15625 -6.296875 L 1.53125 -6.296875 L 1.53125 -8.078125 Z M 2.578125 -8.078125 "/></g></g></g></svg>