<svg xmlns="http://www.w3.org/2000/svg" xmlns:xlink="http://www.w3.org/1999/xlink" width="300" zoomAndPan="magnify" viewBox="0 0 224.87999 48" height="64" preserveAspectRatio="xMidYMid meet" version="1.0"><defs><g/></defs><g fill="#ffffff" fill-opacity="1"><g transform="translate(54.743565, 18.197451)"><g><path d="M 1.921875 -9.4375 L 4.234375 -5.671875 L 6.578125 -9.4375 L 8.578125 -9.4375 L 5.03125 -4.03125 L 5.03125 0 L 3.359375 0 L 3.359375 -4.03125 L -0.1875 -9.4375 Z M 1.921875 -9.4375 "/></g></g></g><g fill="#ffffff" fill-opacity="1"><g transform="translate(63.132882, 18.197451)"><g><path d="M 4.0625 -6.5625 C 5.039062 -6.5625 5.863281 -6.25 6.53125 -5.625 C 7.207031 -5 7.546875 -4.191406 7.546875 -3.203125 C 7.546875 -2.203125 7.207031 -1.390625 6.53125 -0.765625 C 5.863281 -0.148438 5.039062 0.15625 4.0625 0.15625 C 3.082031 0.15625 2.257812 -0.148438 1.59375 -0.765625 C 0.925781 -1.390625 0.59375 -2.203125 0.59375 -3.203125 C 0.59375 -4.191406 0.925781 -5 1.59375 -5.625 C 2.257812 -6.25 3.082031 -6.5625 4.0625 -6.5625 Z M 2.1875 -3.203125 C 2.1875 -2.628906 2.363281 -2.164062 2.71875 -1.8125 C 3.082031 -1.457031 3.53125 -1.28125 4.0625 -1.28125 C 4.601562 -1.28125 5.050781 -1.457031 5.40625 -1.8125 C 5.757812 -2.175781 5.9375 -2.640625 5.9375 -3.203125 C 5.9375 -3.765625 5.753906 -4.222656 5.390625 -4.578125 C 5.035156 -4.941406 4.585938 -5.125 4.046875 -5.125 C 3.523438 -5.125 3.082031 -4.941406 2.71875 -4.578125 C 2.363281 -4.210938 2.1875 -3.753906 2.1875 -3.203125 Z M 2.1875 -3.203125 "/></g></g></g><g fill="#ffffff" fill-opacity="1"><g transform="translate(71.25587, 18.197451)"><g><path d="M 2.5 -6.390625 L 2.5 -3.09375 C 2.5 -2.445312 2.597656 -1.984375 2.796875 -1.703125 C 2.992188 -1.421875 3.285156 -1.28125 3.671875 -1.28125 C 4.148438 -1.28125 4.515625 -1.425781 4.765625 -1.71875 C 5.015625 -2.007812 5.140625 -2.40625 5.140625 -2.90625 L 5.140625 -6.390625 L 6.75 -6.390625 L 6.75 0 L 5.21875 0 L 5.21875 -1.03125 L 5.203125 -1.03125 C 4.828125 -0.238281 4.171875 0.15625 3.234375 0.15625 C 2.515625 0.15625 1.945312 -0.0546875 1.53125 -0.484375 C 1.113281 -0.921875 0.90625 -1.53125 0.90625 -2.3125 L 0.90625 -6.390625 Z M 2.5 -6.390625 "/></g></g></g><g fill="#ffffff" fill-opacity="1"><g transform="translate(78.899462, 18.197451)"><g/></g></g><g fill="#ffffff" fill-opacity="1"><g transform="translate(82.841109, 18.197451)"><g><path d="M 3.609375 -6.5625 C 4.523438 -6.5625 5.207031 -6.335938 5.65625 -5.890625 C 6.113281 -5.453125 6.34375 -4.765625 6.34375 -3.828125 L 6.34375 0 L 4.90625 0 L 4.90625 -0.875 L 4.859375 -0.875 C 4.429688 -0.1875 3.75 0.15625 2.8125 0.15625 C 2.113281 0.15625 1.550781 -0.0195312 1.125 -0.375 C 0.695312 -0.738281 0.484375 -1.203125 0.484375 -1.765625 C 0.484375 -2.503906 0.789062 -3.054688 1.40625 -3.421875 C 2.03125 -3.796875 3.03125 -3.984375 4.40625 -3.984375 L 4.90625 -3.984375 L 4.90625 -4.171875 C 4.90625 -4.546875 4.769531 -4.835938 4.5 -5.046875 C 4.238281 -5.253906 3.882812 -5.359375 3.4375 -5.359375 C 2.78125 -5.359375 2.210938 -5.132812 1.734375 -4.6875 L 0.890625 -5.53125 C 1.554688 -6.21875 2.460938 -6.5625 3.609375 -6.5625 Z M 2.078125 -1.875 C 2.078125 -1.601562 2.191406 -1.394531 2.421875 -1.25 C 2.648438 -1.113281 2.914062 -1.046875 3.21875 -1.046875 C 3.757812 -1.046875 4.160156 -1.179688 4.421875 -1.453125 C 4.679688 -1.722656 4.8125 -2.0625 4.8125 -2.46875 L 4.8125 -2.859375 L 4.34375 -2.859375 C 2.832031 -2.859375 2.078125 -2.53125 2.078125 -1.875 Z M 2.078125 -1.875 "/></g></g></g><g fill="#ffffff" fill-opacity="1"><g transform="translate(89.991998, 18.197451)"><g><path d="M 4.421875 -6.5625 C 4.554688 -6.5625 4.75 -6.53125 5 -6.46875 L 5 -4.921875 C 4.71875 -4.992188 4.457031 -5.03125 4.21875 -5.03125 C 3.695312 -5.03125 3.28125 -4.875 2.96875 -4.5625 C 2.65625 -4.257812 2.5 -3.847656 2.5 -3.328125 L 2.5 0 L 0.90625 0 L 0.90625 -6.390625 L 2.5 -6.390625 L 2.5 -5.390625 L 2.53125 -5.390625 C 2.707031 -5.753906 2.957031 -6.039062 3.28125 -6.25 C 3.613281 -6.457031 3.992188 -6.5625 4.421875 -6.5625 Z M 4.421875 -6.5625 "/></g></g></g><g fill="#ffffff" fill-opacity="1"><g transform="translate(95.172063, 18.197451)"><g><path d="M 4.0625 -6.5625 C 5.019531 -6.5625 5.757812 -6.238281 6.28125 -5.59375 C 6.800781 -4.957031 7.0625 -4.125 7.0625 -3.09375 L 7.0625 -2.640625 L 2.1875 -2.640625 C 2.238281 -2.179688 2.421875 -1.8125 2.734375 -1.53125 C 3.054688 -1.257812 3.445312 -1.125 3.90625 -1.125 C 4.582031 -1.125 5.15625 -1.410156 5.625 -1.984375 L 6.765625 -1.125 C 6.078125 -0.269531 5.175781 0.15625 4.0625 0.15625 C 3.082031 0.15625 2.257812 -0.148438 1.59375 -0.765625 C 0.925781 -1.390625 0.59375 -2.203125 0.59375 -3.203125 C 0.59375 -4.191406 0.925781 -5 1.59375 -5.625 C 2.257812 -6.25 3.082031 -6.5625 4.0625 -6.5625 Z M 5.46875 -3.84375 C 5.457031 -4.34375 5.300781 -4.71875 5 -4.96875 C 4.695312 -5.226562 4.304688 -5.359375 3.828125 -5.359375 C 3.347656 -5.359375 2.96875 -5.21875 2.6875 -4.9375 C 2.414062 -4.65625 2.25 -4.289062 2.1875 -3.84375 Z M 5.46875 -3.84375 "/></g></g></g><g fill="#ffffff" fill-opacity="1"><g transform="translate(102.815655, 18.197451)"><g/></g></g><g fill="#ffffff" fill-opacity="1"><g transform="translate(106.757302, 18.197451)"><g><path d="M 2.53125 -10.078125 L 2.53125 0 L 0.9375 0 L 0.9375 -10.078125 Z M 2.53125 -10.078125 "/></g></g></g><g fill="#ffffff" fill-opacity="1"><g transform="translate(110.219554, 18.197451)"><g><path d="M 4.0625 -6.5625 C 5.039062 -6.5625 5.863281 -6.25 6.53125 -5.625 C 7.207031 -5 7.546875 -4.191406 7.546875 -3.203125 C 7.546875 -2.203125 7.207031 -1.390625 6.53125 -0.765625 C 5.863281 -0.148438 5.039062 0.15625 4.0625 0.15625 C 3.082031 0.15625 2.257812 -0.148438 1.59375 -0.765625 C 0.925781 -1.390625 0.59375 -2.203125 0.59375 -3.203125 C 0.59375 -4.191406 0.925781 -5 1.59375 -5.625 C 2.257812 -6.25 3.082031 -6.5625 4.0625 -6.5625 Z M 2.1875 -3.203125 C 2.1875 -2.628906 2.363281 -2.164062 2.71875 -1.8125 C 3.082031 -1.457031 3.53125 -1.28125 4.0625 -1.28125 C 4.601562 -1.28125 5.050781 -1.457031 5.40625 -1.8125 C 5.757812 -2.175781 5.9375 -2.640625 5.9375 -3.203125 C 5.9375 -3.765625 5.753906 -4.222656 5.390625 -4.578125 C 5.035156 -4.941406 4.585938 -5.125 4.046875 -5.125 C 3.523438 -5.125 3.082031 -4.941406 2.71875 -4.578125 C 2.363281 -4.210938 2.1875 -3.753906 2.1875 -3.203125 Z M 2.1875 -3.203125 "/></g></g></g><g fill="#ffffff" fill-opacity="1"><g transform="translate(118.342542, 18.197451)"><g><path d="M 3.734375 -6.5625 C 4.765625 -6.5625 5.5 -6.1875 5.9375 -5.4375 L 5.96875 -5.4375 L 5.96875 -6.390625 L 7.484375 -6.390625 L 7.484375 -0.515625 C 7.484375 0.640625 7.179688 1.546875 6.578125 2.203125 C 5.984375 2.867188 5.082031 3.203125 3.875 3.203125 C 2.5625 3.203125 1.503906 2.847656 0.703125 2.140625 L 1.671875 0.84375 C 2.335938 1.457031 3.066406 1.765625 3.859375 1.765625 C 4.609375 1.765625 5.132812 1.570312 5.4375 1.1875 C 5.738281 0.8125 5.890625 0.269531 5.890625 -0.4375 L 5.890625 -0.859375 L 5.859375 -0.859375 C 5.367188 -0.234375 4.671875 0.078125 3.765625 0.078125 C 2.847656 0.078125 2.085938 -0.226562 1.484375 -0.84375 C 0.890625 -1.457031 0.59375 -2.242188 0.59375 -3.203125 C 0.59375 -4.179688 0.878906 -4.984375 1.453125 -5.609375 C 2.023438 -6.242188 2.785156 -6.5625 3.734375 -6.5625 Z M 2.1875 -3.21875 C 2.1875 -2.675781 2.367188 -2.226562 2.734375 -1.875 C 3.109375 -1.53125 3.550781 -1.359375 4.0625 -1.359375 C 4.644531 -1.359375 5.109375 -1.535156 5.453125 -1.890625 C 5.796875 -2.242188 5.96875 -2.691406 5.96875 -3.234375 C 5.96875 -3.828125 5.789062 -4.289062 5.4375 -4.625 C 5.09375 -4.957031 4.632812 -5.125 4.0625 -5.125 C 3.507812 -5.125 3.054688 -4.945312 2.703125 -4.59375 C 2.359375 -4.25 2.1875 -3.789062 2.1875 -3.21875 Z M 2.1875 -3.21875 "/></g></g></g><g fill="#ffffff" fill-opacity="1"><g transform="translate(126.731859, 18.197451)"><g><path d="M 3.734375 -6.5625 C 4.765625 -6.5625 5.5 -6.1875 5.9375 -5.4375 L 5.96875 -5.4375 L 5.96875 -6.390625 L 7.484375 -6.390625 L 7.484375 -0.515625 C 7.484375 0.640625 7.179688 1.546875 6.578125 2.203125 C 5.984375 2.867188 5.082031 3.203125 3.875 3.203125 C 2.5625 3.203125 1.503906 2.847656 0.703125 2.140625 L 1.671875 0.84375 C 2.335938 1.457031 3.066406 1.765625 3.859375 1.765625 C 4.609375 1.765625 5.132812 1.570312 5.4375 1.1875 C 5.738281 0.8125 5.890625 0.269531 5.890625 -0.4375 L 5.890625 -0.859375 L 5.859375 -0.859375 C 5.367188 -0.234375 4.671875 0.078125 3.765625 0.078125 C 2.847656 0.078125 2.085938 -0.226562 1.484375 -0.84375 C 0.890625 -1.457031 0.59375 -2.242188 0.59375 -3.203125 C 0.59375 -4.179688 0.878906 -4.984375 1.453125 -5.609375 C 2.023438 -6.242188 2.785156 -6.5625 3.734375 -6.5625 Z M 2.1875 -3.21875 C 2.1875 -2.675781 2.367188 -2.226562 2.734375 -1.875 C 3.109375 -1.53125 3.550781 -1.359375 4.0625 -1.359375 C 4.644531 -1.359375 5.109375 -1.535156 5.453125 -1.890625 C 5.796875 -2.242188 5.96875 -2.691406 5.96875 -3.234375 C 5.96875 -3.828125 5.789062 -4.289062 5.4375 -4.625 C 5.09375 -4.957031 4.632812 -5.125 4.0625 -5.125 C 3.507812 -5.125 3.054688 -4.945312 2.703125 -4.59375 C 2.359375 -4.25 2.1875 -3.789062 2.1875 -3.21875 Z M 2.1875 -3.21875 "/></g></g></g><g fill="#ffffff" fill-opacity="1"><g transform="translate(135.121176, 18.197451)"><g><path d="M 4.0625 -6.5625 C 5.019531 -6.5625 5.757812 -6.238281 6.28125 -5.59375 C 6.800781 -4.957031 7.0625 -4.125 7.0625 -3.09375 L 7.0625 -2.640625 L 2.1875 -2.640625 C 2.238281 -2.179688 2.421875 -1.8125 2.734375 -1.53125 C 3.054688 -1.257812 3.445312 -1.125 3.90625 -1.125 C 4.582031 -1.125 5.15625 -1.410156 5.625 -1.984375 L 6.765625 -1.125 C 6.078125 -0.269531 5.175781 0.15625 4.0625 0.15625 C 3.082031 0.15625 2.257812 -0.148438 1.59375 -0.765625 C 0.925781 -1.390625 0.59375 -2.203125 0.59375 -3.203125 C 0.59375 -4.191406 0.925781 -5 1.59375 -5.625 C 2.257812 -6.25 3.082031 -6.5625 4.0625 -6.5625 Z M 5.46875 -3.84375 C 5.457031 -4.34375 5.300781 -4.71875 5 -4.96875 C 4.695312 -5.226562 4.304688 -5.359375 3.828125 -5.359375 C 3.347656 -5.359375 2.96875 -5.21875 2.6875 -4.9375 C 2.414062 -4.65625 2.25 -4.289062 2.1875 -3.84375 Z M 5.46875 -3.84375 "/></g></g></g><g fill="#ffffff" fill-opacity="1"><g transform="translate(142.764767, 18.197451)"><g><path d="M 7.484375 -10.078125 L 7.484375 0 L 5.96875 0 L 5.96875 -0.953125 L 5.9375 -0.953125 C 5.5 -0.210938 4.765625 0.15625 3.734375 0.15625 C 2.785156 0.15625 2.023438 -0.15625 1.453125 -0.78125 C 0.878906 -1.414062 0.59375 -2.222656 0.59375 -3.203125 C 0.59375 -4.140625 0.878906 -4.929688 1.453125 -5.578125 C 2.023438 -6.234375 2.765625 -6.5625 3.671875 -6.5625 C 4.585938 -6.5625 5.3125 -6.234375 5.84375 -5.578125 L 5.890625 -5.578125 L 5.890625 -10.078125 Z M 2.1875 -3.203125 C 2.1875 -2.628906 2.363281 -2.164062 2.71875 -1.8125 C 3.082031 -1.457031 3.53125 -1.28125 4.0625 -1.28125 C 4.625 -1.28125 5.078125 -1.460938 5.421875 -1.828125 C 5.765625 -2.203125 5.9375 -2.660156 5.9375 -3.203125 C 5.9375 -3.753906 5.753906 -4.210938 5.390625 -4.578125 C 5.035156 -4.941406 4.59375 -5.125 4.0625 -5.125 C 3.539062 -5.125 3.097656 -4.941406 2.734375 -4.578125 C 2.367188 -4.210938 2.1875 -3.753906 2.1875 -3.203125 Z M 2.1875 -3.203125 "/></g></g></g><g fill="#ffffff" fill-opacity="1"><g transform="translate(151.154084, 18.197451)"><g/></g></g><g fill="#ffffff" fill-opacity="1"><g transform="translate(155.095732, 18.197451)"><g><path d="M 1.71875 -9.53125 C 2.007812 -9.53125 2.253906 -9.4375 2.453125 -9.25 C 2.660156 -9.070312 2.765625 -8.84375 2.765625 -8.5625 C 2.765625 -8.28125 2.660156 -8.050781 2.453125 -7.875 C 2.242188 -7.695312 2 -7.609375 1.71875 -7.609375 C 1.4375 -7.609375 1.195312 -7.703125 1 -7.890625 C 0.800781 -8.085938 0.703125 -8.3125 0.703125 -8.5625 C 0.703125 -8.820312 0.800781 -9.046875 1 -9.234375 C 1.195312 -9.429688 1.4375 -9.53125 1.71875 -9.53125 Z M 2.53125 -6.390625 L 2.53125 0 L 0.9375 0 L 0.9375 -6.390625 Z M 2.53125 -6.390625 "/></g></g></g><g fill="#ffffff" fill-opacity="1"><g transform="translate(158.557984, 18.197451)"><g><path d="M 4.40625 -6.5625 C 5.132812 -6.5625 5.707031 -6.34375 6.125 -5.90625 C 6.539062 -5.46875 6.75 -4.863281 6.75 -4.09375 L 6.75 0 L 5.140625 0 L 5.140625 -3.3125 C 5.140625 -4.519531 4.75 -5.125 3.96875 -5.125 C 3.519531 -5.125 3.160156 -4.972656 2.890625 -4.671875 C 2.628906 -4.378906 2.5 -3.992188 2.5 -3.515625 L 2.5 0 L 0.90625 0 L 0.90625 -6.390625 L 2.421875 -6.390625 L 2.421875 -5.375 L 2.453125 -5.375 C 2.816406 -6.164062 3.46875 -6.5625 4.40625 -6.5625 Z M 4.40625 -6.5625 "/></g></g></g><g fill="#ffffff" fill-opacity="1"><g transform="translate(166.201575, 18.197451)"><g><path d="M 2.765625 -9.4375 L 2.765625 -2.953125 L 1.171875 -2.953125 L 1.171875 -9.4375 Z M 1.96875 -1.96875 C 2.257812 -1.96875 2.507812 -1.875 2.71875 -1.6875 C 2.925781 -1.5 3.03125 -1.253906 3.03125 -0.953125 C 3.03125 -0.671875 2.925781 -0.425781 2.71875 -0.21875 C 2.519531 -0.0195312 2.269531 0.078125 1.96875 0.078125 C 1.6875 0.078125 1.4375 -0.015625 1.21875 -0.203125 C 1.007812 -0.398438 0.90625 -0.644531 0.90625 -0.9375 C 0.90625 -1.226562 1.007812 -1.472656 1.21875 -1.671875 C 1.4375 -1.867188 1.6875 -1.96875 1.96875 -1.96875 Z M 1.96875 -1.96875 "/></g></g></g><g fill="#ffffff" fill-opacity="1"><g transform="translate(63.751755, 34.705283)"><g><path d="M 7.578125 -9.53125 L 7.578125 -8.46875 L 4.421875 -8.46875 L 4.421875 0 L 3.296875 0 L 3.296875 -8.46875 L 0.140625 -8.46875 L 0.140625 -9.53125 Z M 7.578125 -9.53125 "/></g></g></g><g fill="#ffffff" fill-opacity="1"><g transform="translate(71.472457, 34.705283)"><g><path d="M 5.34375 -9.53125 L 9.390625 0 L 8.078125 0 L 7.109375 -2.34375 L 2.34375 -2.34375 L 1.359375 0 L 0.078125 0 L 4.28125 -9.53125 Z M 4.765625 -8.078125 L 2.78125 -3.390625 L 6.671875 -3.390625 L 4.796875 -8.078125 Z M 4.765625 -8.078125 "/></g></g></g><g fill="#ffffff" fill-opacity="1"><g transform="translate(80.941747, 34.705283)"><g><path d="M 2.3125 -9.53125 L 2.3125 -5.484375 L 7.40625 -5.484375 L 7.40625 -9.53125 L 8.53125 -9.53125 L 8.53125 0 L 7.40625 0 L 7.40625 -4.4375 L 2.3125 -4.4375 L 2.3125 0 L 1.1875 0 L 1.1875 -9.53125 Z M 2.3125 -9.53125 "/></g></g></g><g fill="#ffffff" fill-opacity="1"><g transform="translate(90.653144, 34.705283)"><g/></g></g><g fill="#ffffff" fill-opacity="1"><g transform="translate(94.392441, 34.705283)"><g><path d="M 3.890625 -3.71875 L 3.890625 -2.75 L 0.59375 -2.75 L 0.59375 -3.71875 Z M 3.890625 -3.71875 "/></g></g></g><g fill="#ffffff" fill-opacity="1"><g transform="translate(98.871529, 34.705283)"><g/></g></g><g fill="#ffffff" fill-opacity="1"><g transform="translate(102.610826, 34.705283)"><g><path d="M 2.28125 -9.53125 L 2.28125 -3.796875 C 2.28125 -2.828125 2.484375 -2.085938 2.890625 -1.578125 C 3.304688 -1.078125 3.921875 -0.820312 4.734375 -0.8125 C 5.546875 -0.820312 6.15625 -1.078125 6.5625 -1.578125 C 6.976562 -2.085938 7.191406 -2.804688 7.203125 -3.734375 L 7.203125 -9.53125 L 8.328125 -9.53125 L 8.328125 -3.59375 C 8.328125 -2.382812 8.007812 -1.441406 7.375 -0.765625 C 6.75 -0.0976562 5.867188 0.234375 4.734375 0.234375 C 3.609375 0.234375 2.726562 -0.101562 2.09375 -0.78125 C 1.46875 -1.457031 1.148438 -2.398438 1.140625 -3.609375 L 1.140625 -9.53125 Z M 2.28125 -9.53125 "/></g></g></g><g fill="#ffffff" fill-opacity="1"><g transform="translate(112.080116, 34.705283)"><g><path d="M 4.09375 -6.453125 C 4.882812 -6.453125 5.476562 -6.222656 5.875 -5.765625 C 6.28125 -5.304688 6.484375 -4.695312 6.484375 -3.9375 L 6.484375 0 L 5.4375 0 L 5.4375 -3.828125 C 5.4375 -4.304688 5.320312 -4.695312 5.09375 -5 C 4.875 -5.3125 4.507812 -5.472656 4 -5.484375 C 3.351562 -5.484375 2.863281 -5.269531 2.53125 -4.84375 C 2.207031 -4.414062 2.046875 -3.828125 2.046875 -3.078125 L 2.046875 0 L 1 0 L 1 -4.890625 C 1 -4.941406 0.976562 -5.410156 0.9375 -6.296875 L 1.9375 -6.296875 C 1.957031 -5.671875 1.96875 -5.328125 1.96875 -5.265625 L 1.984375 -5.265625 C 2.160156 -5.617188 2.4375 -5.90625 2.8125 -6.125 C 3.195312 -6.34375 3.625 -6.453125 4.09375 -6.453125 Z M 4.09375 -6.453125 "/></g></g></g><g fill="#ffffff" fill-opacity="1"><g transform="translate(119.558698, 34.705283)"><g><path d="M 2.140625 -10.171875 L 2.140625 0 L 1.09375 0 L 1.09375 -10.171875 Z M 2.140625 -10.171875 "/></g></g></g><g fill="#ffffff" fill-opacity="1"><g transform="translate(122.786868, 34.705283)"><g><path d="M 1.609375 -9.53125 C 1.816406 -9.53125 1.992188 -9.453125 2.140625 -9.296875 C 2.296875 -9.148438 2.375 -8.972656 2.375 -8.765625 C 2.375 -8.535156 2.300781 -8.347656 2.15625 -8.203125 C 2.019531 -8.054688 1.835938 -7.984375 1.609375 -7.984375 C 1.390625 -7.984375 1.207031 -8.054688 1.0625 -8.203125 C 0.914062 -8.347656 0.84375 -8.535156 0.84375 -8.765625 C 0.84375 -8.972656 0.921875 -9.148438 1.078125 -9.296875 C 1.234375 -9.453125 1.410156 -9.53125 1.609375 -9.53125 Z M 2.140625 -6.296875 L 2.140625 0 L 1.09375 0 L 1.09375 -6.296875 Z M 2.140625 -6.296875 "/></g></g></g><g fill="#ffffff" fill-opacity="1"><g transform="translate(126.015038, 34.705283)"><g><path d="M 4.109375 -6.453125 C 5.066406 -6.453125 5.722656 -6.054688 6.078125 -5.265625 C 6.328125 -5.671875 6.609375 -5.96875 6.921875 -6.15625 C 7.242188 -6.351562 7.628906 -6.453125 8.078125 -6.453125 C 8.898438 -6.453125 9.503906 -6.238281 9.890625 -5.8125 C 10.273438 -5.382812 10.46875 -4.742188 10.46875 -3.890625 L 10.46875 0 L 9.421875 0 L 9.421875 -3.8125 C 9.421875 -4.914062 8.910156 -5.472656 7.890625 -5.484375 C 7.410156 -5.484375 7.015625 -5.304688 6.703125 -4.953125 C 6.398438 -4.597656 6.25 -4.171875 6.25 -3.671875 L 6.25 0 L 5.203125 0 L 5.203125 -3.640625 C 5.203125 -4.265625 5.113281 -4.726562 4.9375 -5.03125 C 4.757812 -5.332031 4.441406 -5.484375 3.984375 -5.484375 C 3.347656 -5.484375 2.863281 -5.269531 2.53125 -4.84375 C 2.207031 -4.414062 2.046875 -3.828125 2.046875 -3.078125 L 2.046875 0 L 1 0 L 1 -4.890625 C 0.988281 -5.210938 0.96875 -5.679688 0.9375 -6.296875 L 1.9375 -6.296875 C 1.957031 -5.679688 1.96875 -5.335938 1.96875 -5.265625 L 1.984375 -5.265625 C 2.160156 -5.617188 2.4375 -5.90625 2.8125 -6.125 C 3.1875 -6.34375 3.617188 -6.453125 4.109375 -6.453125 Z M 4.109375 -6.453125 "/></g></g></g><g fill="#ffffff" fill-opacity="1"><g transform="translate(137.475037, 34.705283)"><g><path d="M 1.609375 -9.53125 C 1.816406 -9.53125 1.992188 -9.453125 2.140625 -9.296875 C 2.296875 -9.148438 2.375 -8.972656 2.375 -8.765625 C 2.375 -8.535156 2.300781 -8.347656 2.15625 -8.203125 C 2.019531 -8.054688 1.835938 -7.984375 1.609375 -7.984375 C 1.390625 -7.984375 1.207031 -8.054688 1.0625 -8.203125 C 0.914062 -8.347656 0.84375 -8.535156 0.84375 -8.765625 C 0.84375 -8.972656 0.921875 -9.148438 1.078125 -9.296875 C 1.234375 -9.453125 1.410156 -9.53125 1.609375 -9.53125 Z M 2.140625 -6.296875 L 2.140625 0 L 1.09375 0 L 1.09375 -6.296875 Z M 2.140625 -6.296875 "/></g></g></g><g fill="#ffffff" fill-opacity="1"><g transform="translate(140.703207, 34.705283)"><g><path d="M 2.578125 -8.078125 L 2.578125 -6.296875 L 4.4375 -6.296875 L 4.4375 -5.40625 L 2.578125 -5.40625 L 2.578125 -2.046875 C 2.578125 -1.546875 2.65625 -1.210938 2.8125 -1.046875 C 2.976562 -0.890625 3.21875 -0.8125 3.53125 -0.8125 C 3.875 -0.8125 4.179688 -0.878906 4.453125 -1.015625 L 4.5 -0.0625 C 4.132812 0.0820312 3.722656 0.15625 3.265625 0.15625 C 2.617188 0.15625 2.164062 0 1.90625 -0.3125 C 1.65625 -0.632812 1.53125 -1.160156 1.53125 -1.890625 L 1.53125 -5.40625 L 0.15625 -5.40625 L 0.15625 -6.296875 L 1.53125 -6.296875 L 1.53125 -8.078125 Z M 2.578125 -8.078125 "/></g></g></g><g fill="#ffffff" fill-opacity="1"><g transform="translate(145.437859, 34.705283)"><g><path d="M 3.859375 -6.453125 C 4.796875 -6.453125 5.523438 -6.15625 6.046875 -5.5625 C 6.566406 -4.976562 6.832031 -4.148438 6.84375 -3.078125 L 6.84375 -2.828125 L 1.765625 -2.828125 C 1.816406 -2.242188 2.035156 -1.765625 2.421875 -1.390625 C 2.804688 -1.015625 3.273438 -0.820312 3.828125 -0.8125 C 4.679688 -0.8125 5.347656 -1.128906 5.828125 -1.765625 L 6.625 -1.140625 C 6.289062 -0.710938 5.898438 -0.390625 5.453125 -0.171875 C 5.003906 0.046875 4.460938 0.15625 3.828125 0.15625 C 2.867188 0.15625 2.097656 -0.148438 1.515625 -0.765625 C 0.929688 -1.390625 0.632812 -2.179688 0.625 -3.140625 C 0.625 -4.097656 0.921875 -4.882812 1.515625 -5.5 C 2.117188 -6.125 2.898438 -6.441406 3.859375 -6.453125 Z M 5.71875 -3.71875 C 5.6875 -4.257812 5.503906 -4.6875 5.171875 -5 C 4.847656 -5.320312 4.394531 -5.484375 3.8125 -5.484375 C 3.269531 -5.484375 2.8125 -5.332031 2.4375 -5.03125 C 2.070312 -4.726562 1.847656 -4.289062 1.765625 -3.71875 Z M 5.71875 -3.71875 "/></g></g></g><g fill="#ffffff" fill-opacity="1"><g transform="translate(152.91644, 34.705283)"><g><path d="M 7.28125 -10.171875 L 7.28125 0 L 6.234375 0 L 6.234375 -1.109375 L 6.203125 -1.109375 C 5.984375 -0.710938 5.65625 -0.398438 5.21875 -0.171875 C 4.78125 0.046875 4.300781 0.15625 3.78125 0.15625 C 2.894531 0.15625 2.148438 -0.15625 1.546875 -0.78125 C 0.953125 -1.414062 0.644531 -2.203125 0.625 -3.140625 C 0.625 -4.109375 0.929688 -4.898438 1.546875 -5.515625 C 2.160156 -6.128906 2.957031 -6.441406 3.9375 -6.453125 C 4.84375 -6.453125 5.597656 -6.09375 6.203125 -5.375 L 6.234375 -5.375 L 6.234375 -10.171875 Z M 1.765625 -3.140625 C 1.765625 -2.453125 1.972656 -1.894531 2.390625 -1.46875 C 2.804688 -1.039062 3.34375 -0.820312 4 -0.8125 C 4.65625 -0.8125 5.1875 -1.023438 5.59375 -1.453125 C 6 -1.878906 6.210938 -2.441406 6.234375 -3.140625 C 6.234375 -3.828125 6.023438 -4.390625 5.609375 -4.828125 C 5.191406 -5.265625 4.648438 -5.484375 3.984375 -5.484375 C 3.335938 -5.484375 2.8125 -5.265625 2.40625 -4.828125 C 2 -4.398438 1.785156 -3.835938 1.765625 -3.140625 Z M 1.765625 -3.140625 "/></g></g></g></svg>