<svg xmlns="http://www.w3.org/2000/svg" xmlns:xlink="http://www.w3.org/1999/xlink" width="100" zoomAndPan="magnify" viewBox="0 0 75 74.999997" height="100" preserveAspectRatio="xMidYMid meet" version="1.0"><defs><g/></defs><g fill="#ffffff" fill-opacity="1"><g transform="translate(7.750017, 69.699965)"><g><path d="M 10.34375 0.546875 C 8.875 0.546875 7.71875 0.0859375 6.875 -0.828125 C 6.03125 -1.742188 5.609375 -2.972656 5.609375 -4.515625 C 5.609375 -5.609375 5.972656 -6.632812 6.703125 -7.59375 L 23.765625 -27.71875 L 6.703125 -48.515625 C 5.898438 -49.535156 5.5 -50.597656 5.5 -51.703125 C 5.5 -53.171875 5.972656 -54.363281 6.921875 -55.28125 C 7.878906 -56.195312 9.054688 -56.65625 10.453125 -56.65625 C 12.210938 -56.65625 13.53125 -56.03125 14.40625 -54.78125 L 29.8125 -35.75 L 45.09375 -54.78125 C 45.976562 -56.03125 47.265625 -56.65625 48.953125 -56.65625 C 50.421875 -56.65625 51.628906 -56.195312 52.578125 -55.28125 C 53.535156 -54.363281 54.015625 -53.242188 54.015625 -51.921875 C 54.015625 -50.816406 53.644531 -49.789062 52.90625 -48.84375 L 35.53125 -28.375 L 52.6875 -7.703125 C 53.5 -6.816406 53.90625 -5.753906 53.90625 -4.515625 C 53.90625 -3.117188 53.460938 -1.925781 52.578125 -0.9375 C 51.703125 0.0507812 50.457031 0.546875 48.84375 0.546875 C 47.226562 0.546875 45.941406 -0.113281 44.984375 -1.4375 L 29.375 -20.125 L 14.625 -1.65625 C 13.53125 -0.1875 12.101562 0.546875 10.34375 0.546875 Z M 10.34375 0.546875 "/></g></g></g></svg>